<svg xmlns="http://www.w3.org/2000/svg" viewBox="0 0 700 700"><defs><style>.cls-1{opacity:0.05;}.cls-2{fill:#fff;}</style></defs><g id="Layer_2" data-name="Layer 2"><g id="Layer_1-2" data-name="Layer 1"><g class="cls-1"><path class="cls-2" d="M700,272c-2.68-1.08-4.32,0-5.68,2.37-1.91,3.31-4.07,6.47-6.1,9.71-.91,1.46-1.93,2.9-3.82,2.76-2.09-.16-3-1.68-3.61-3.6-1.45-4.56-3.07-9.07-4.92-14.49-3,4.58-5.44,8.54-8.06,12.41-1.33,2-2.2,4.87-5.45,4.21-2.88-.58-2.9-3.25-3.48-5.48-1.07-4.09-2.18-8.17-3.6-13.46-2.38,5.7-4.34,10.37-6.26,15.06-1,2.41-2.06,5-5.32,3.64s-2.17-4-1.2-6.34q4.79-11.75,9.58-23.5c.78-1.9,1.63-3.75,4.15-3.61s3.16,2.1,3.68,4.08c1.45,5.56,2.88,11.13,4.52,17.51,3.1-4.77,5.81-8.9,8.49-13.06,1.09-1.7,2.12-3.54,4.57-3.15s2.87,2.48,3.5,4.38l4.46,13.43c4-5.22,6.21-12.46,14.55-10.87Z"/><path class="cls-2" d="M700,622a6.39,6.39,0,0,0-6.15,4,75.39,75.39,0,0,1-4.78,7.59c-1.25,1.91-2.13,4.46-5.08,4s-3.07-3.22-3.83-5.32c-1.44-4-2.71-8.08-4.27-12.77l-9.08,14.13c-1,1.6-2.18,3-4.38,2.65s-2.76-2.22-3.24-4c-1.22-4.58-2.36-9.17-3.88-15.13-2.43,5.87-4.41,10.54-6.29,15.23-1,2.49-2.22,4.92-5.39,3.58s-2.07-4-1.11-6.39q4.8-11.76,9.59-23.53c.78-1.94,1.77-3.8,4.19-3.59s3.11,2.17,3.63,4.19c1.41,5.56,2.85,11.11,4.49,17.52,3.15-4.86,5.86-9,8.54-13.16,1.1-1.72,2.15-3.45,4.63-3.06,2.25.36,2.71,2.25,3.29,4,1.5,4.38,2.91,8.78,4.59,13.85,4-5.27,6-12.76,14.53-10.75Z"/><path class="cls-2" d="M700,367c-7.09-.84-14.18-1.72-21.28-2.52-4.09-.45-5.41-2.22-4.06-6.39,3.58-11,6.85-22.14,10.42-33.79-5.81-.48-11.33-.93-16.85-1.4-1.65-.14-3.3-.35-5-.54-2.34-.27-3.72-1.45-3.45-3.94.25-2.26,1.9-3.18,3.88-3q12.91,1,25.82,2.2c4.12.4,4.11,3.19,3.18,6.23-3,9.83-6.06,19.64-9.09,29.47-.43,1.4-.77,2.83-1.17,4.34L700,360Z"/><path class="cls-2" d="M57,700c1.61-7.19,1.61-7.19-6-9.89-9-3.22-11.53-10.22-6.61-18.5,4.44-7.46,4.14-8.33-3.88-11.21C31,657,28.59,650.28,33.81,641.64c1.54-2.54,3.27-4.87,2.47-8.25-.4-1.7.93-3.14,2.86-3.44A3.3,3.3,0,0,1,43,632.3c1.63,4.19.09,7.77-2.05,11.28-4.38,7.19-4.08,8,3.89,10.8,9.57,3.38,12,10.41,6.68,19.19-4.11,6.76-3.67,8,3.81,10.51C63.24,686.78,65,689.7,65,700Z"/><path class="cls-2" d="M408,700c1.07-7.2,1.07-7.2-6.41-10-8.69-3.21-11.18-10.25-6.46-18.26.76-1.29,1.7-2.48,2.34-3.82,1.28-2.69.7-4.89-2.17-6.11-1.68-.72-3.45-1.2-5.14-1.86-7.72-3-10.22-9.65-6.33-16.89,1.7-3.16,4.2-5.91,3.34-10.06-.35-1.73,1.23-3,3.17-3.13a3.36,3.36,0,0,1,3.65,2.73c1.16,4,0,7.48-2.13,10.88-4.39,7.17-4,8.1,3.75,10.83,9.6,3.37,12.12,10.42,6.84,19.13-4.2,6.94-3.83,7.89,4.17,10.73S417.33,692.15,415,700Z"/><path class="cls-2" d="M81,0c1.4,1.52-.37,2.25-.9,3.16-4.39,7.44-3.15,16,3.17,21.15a15.89,15.89,0,0,0,21-.52c6-5.46,6.76-14.25,2-21.3C105.72,1.74,104.6,1.23,105,0h9c1,4.6,2.92,9,2.38,13.9-1.06,9.69-6.17,16.43-15.17,19.74-8.85,3.26-17.15,1.43-23.87-5.22s-8.62-15-5.59-24.26C72.2,2.79,73.51,1.65,73,0Z"/><path class="cls-2" d="M432,0c1.23,1.55-.5,2.24-1,3.15-4.4,7.37-3.23,15.88,3,21.09a15.86,15.86,0,0,0,20.9-.31c6.22-5.55,7.06-14.29,2.13-21.56-.47-.69-1.79-1.12-1-2.37h8c6.74,13.37,2.25,27.52-10.51,33.1a23.09,23.09,0,0,1-30.95-13.34C420,12.85,421.66,6.45,424,0Z"/><path class="cls-2" d="M700,402a5.63,5.63,0,0,1-1,.1c-9.23-1.11-9.26-1.12-12.52,7.86q-8.24,22.68-16.42,45.37c-.39,1.09-.73,2.2-1.16,3.28-.87,2.19-2.16,3.92-4.84,2.87s-2.48-3.23-1.8-5.46c.24-.8.56-1.56.84-2.34q10-27.58,20-55.18c2.24-6.17,2.57-6.31,9.09-4.92,2.6.55,5.22.95,7.83,1.42Z"/><path class="cls-2" d="M700,51a11.6,11.6,0,0,1-2,.07C689.78,50,689.78,50,687,57.72q-8.52,23.63-17,47.26c-.33.93-.66,1.88-1,2.8-.88,2.24-2.27,3.91-4.89,2.87s-2.47-3.24-1.75-5.48c.3-1,.67-1.87,1-2.81,6.6-18.24,13.33-36.43,19.71-54.75,1.72-4.94,4.07-6.75,9.18-4.91,2.45.88,5.2.89,7.82,1.3Z"/><path class="cls-2" d="M700,584c-2.71,1.6-5.45.55-8.2.12-9.85-1.51-19.73-2.9-29.56-4.52-5.44-.89-5.73-2.68-3.28-7.42,5.47-10.59,13-15.13,24.78-10.39,2.1.84,4.56.86,6.86,1.14,2.55.3,4.81,1,4.46,4.13-.41,3.63-3.25,3.2-5.75,2.82-4.92-.75-9.89-1.39-14.72-2.55-4.33-1-4.89,2.58-6.44,4.75-.83,1.16.91,1.45,1.76,1.58,7.71,1.21,15.44,2.29,23.15,3.53,1.79.29,2.71-.4,3.68-1.74s1-3.44,3.26-3.45Z"/><path class="cls-2" d="M700,233c-4.08,2.42-8.14.16-12.11-.3-8.41-1-16.74-2.51-25.11-3.8-6-.93-6.38-2.71-3.61-7.93,5.38-10.12,12.51-14.65,24-10.17,2.71,1.06,5.89.87,8.82,1.47,2.2.45,3.56,1.87,3.1,4.31-.42,2.25-2.11,2.88-4.12,2.59-5.42-.77-10.92-1.27-16.21-2.6-4.42-1.11-4.92,2.45-6.56,4.55-.86,1.1.57,1.56,1.58,1.71,7.88,1.19,15.76,2.32,23.63,3.62,2,.33,2.48-1,3.5-2.08s.63-3.54,3.11-2.37Z"/><path class="cls-2" d="M306,700c.59-3.36,3.85-7.08,2.25-9.65s-6.17-1.28-9.44-1.69q-19.53-2.45-39.1-4.63c-2.61-.3-5.48-.58-5.37-3.82.12-3.75,3.21-3.56,6-3.24l53,6.12c3.8.44,4.56,2.69,3.66,6-1,3.63-3.09,7-2.95,10.88Z"/><path class="cls-2" d="M657,700a34.53,34.53,0,0,1,1.7-5.68c2-4.07.13-4.87-3.57-5.25-15-1.58-30.08-3.41-45.12-5.1-2.49-.28-5-.85-4.83-3.85.16-3.46,2.9-3.5,5.55-3.19q26.78,3.09,53.53,6.18c3.85.45,4.41,2.82,3.54,6.13-.94,3.58-3.27,6.81-2.8,10.76Z"/><path class="cls-2" d="M0,343c1.36-2.32,3.13-3.47,6.05-3,12.09,2.06,20.67,14.33,19.06,27.51A23.57,23.57,0,0,1,0,388v-7c9.11.44,16.55-5.2,18-13.64,1.57-9.16-3.47-17.6-12.35-20.05C3.35,346.68,1.4,345.94,0,344Z"/><path class="cls-2" d="M678,700c1.22-8.4,5-16.09,6.92-24.82-6.8-.62-13.5-1.24-20.2-1.82-2.65-.23-5.35-.58-4.84-4.14s3.29-3.14,5.86-2.92c7.3.62,14.6,1.21,21.9,1.84,5.42.46,6.41,1.89,4.86,7.08-2.48,8.27-5,16.52-7.5,24.78Z"/><path class="cls-2" d="M327,700c2.07-7.16,3.93-14.4,6.29-21.46,1-3.06.33-3.58-2.58-3.74-6-.33-11.94-1-17.91-1.56-2.27-.19-4-1-3.86-3.58.13-2.75,2-3.66,4.49-3.47,8.3.66,16.6,1.33,24.89,2.1,4.25.39,4.58,3.12,3.53,6.49Q337.94,687.4,334,700Z"/><path class="cls-2" d="M389,0c2.17,6.78,4.58,13.5,6.4,20.38,1,3.67,2.76,4.24,6,3.47,3.7-.88,7.51-1.34,11.23-2.15,2.59-.56,4.79-.45,5.4,2.59.56,2.81-1.41,3.81-3.74,4.24Q405,30.28,395.73,32c-2.47.44-4.12-.45-4.89-3C387.94,19.28,385,9.65,382,0Z"/><path class="cls-2" d="M39,0c.85,7.94,4.45,15.09,6.44,22.71.56,2.13,2.26,1.5,3.67,1.26,4.41-.75,8.82-1.52,13.22-2.38,2.48-.48,4.4,0,4.89,2.73.44,2.44-1,3.66-3.3,4.09C57.56,29.6,51.21,30.83,44.85,32c-2.79.5-4.23-.87-5-3.53C37,18.94,34,9.48,31,0Z"/><path class="cls-2" d="M373,0c2.81,6.7,4.45,13.48,2.06,20.72-3.46,10.46-13.94,17.77-24.41,16.88-2.56-.21-5.48-.55-5.31-3.88s2.73-3.45,5.54-3.33c7.08.31,12.64-2.62,16.08-8.87s2.93-12.4-.92-18.38c-.57-.89-2.32-1.57-1-3.14Z"/><path class="cls-2" d="M700,206c-9.49.07-18.68-2.41-28-3.41-5.27-.56-10.5-1.62-15.76-2.32-2.66-.35-5.42-.85-4.91-4.18.56-3.59,3.57-3.18,6.33-2.76q18.72,2.8,37.46,5.49A42.52,42.52,0,0,0,700,199Z"/><path class="cls-2" d="M700,557c-15.22-1.14-30.19-4.13-45.31-6.06-2.26-.29-3.82-1.66-3.45-4,.42-2.63,2.48-3.27,4.92-2.92,8,1.15,16.08,2.34,24.13,3.44,6.57.9,13.14,1.7,19.71,2.55Z"/><path class="cls-2" d="M0,30c7.12,1.21,12.16-2.24,15.71-7.79,3.78-5.9,3.41-12.15.07-18.32C15.12,2.67,12.81,2.08,14,0h8c4.32,9.1,5,18.1-.82,26.87C16.17,34.44,8.58,37.18,0,38Z"/><path class="cls-2" d="M205,700c-1.3-2.64-4-3.83-6.06-5.63-2.34-2-3-4.24-.7-6.36,3.91-3.65,5.87-11.46,11.41-10.68,6.46.91,11.43,6.95,16.71,11.21,1.36,1.1,1.11,3.08-.28,4.46a3.22,3.22,0,0,1-4.51.32c-3.14-2.2-6.41-4.24-9.3-6.73s-3.54.34-5,1.58c-2,1.69-1.13,2.71.42,4.3,2.44,2.5,6.61,3.36,7.28,7.53Z"/><path class="cls-2" d="M228,700c.52-3.32,3.24-5.23,5.1-7.62s2.26-3.76-.7-5.74c-6-4-11.57-8.42-17.33-12.66-2-1.44-4-3-2.15-5.67,2-2.86,4.28-1.52,6.42.07,7.36,5.44,14.69,10.92,22.12,16.27,3,2.13,3.26,4.27.94,7.06s-4.27,5.52-6.4,8.29Z"/><path class="cls-2" d="M556,700c-1.45-2.51-4-3.8-6.15-5.59-2.61-2.21-2.67-4.32-.54-6.79,2.49-2.89,5-5.76,7.4-8.73,1.91-2.37,3.95-2.75,6.43-.94,4.27,3.14,8.58,6.24,12.85,9.38,1.79,1.31,2.84,3,1.4,5.08-1.56,2.26-3.58,2-5.61.54a87.87,87.87,0,0,1-7.59-5.6c-2.65-2.4-4.09-1.72-6.23.83-2.45,2.92.24,3.44,1.44,4.93,2,2.49,6.13,2.95,6.6,6.89Z"/><path class="cls-2" d="M579,700c.49-3.39,3.16-5.44,5.11-7.85s2-3.52-.67-5.34c-5.9-4-11.53-8.41-17.27-12.65-2-1.51-4.48-3.06-2.37-6s4.31-1.37,6.44.2c7.33,5.44,14.65,10.9,22,16.25,2.9,2.1,3.37,4.19,1,7-2.22,2.66-4.19,5.54-6.27,8.33Z"/><path class="cls-2" d="M182,0c-.61,5.69,1.85,10.9,2.57,16.38.29,2.25,1.51,4.72-1,6.37s-4.34-.2-6.26-1.51c-4.92-3.38-9.85-6.76-14.83-10-2.21-1.45-3.7-3.24-2.08-5.72s4-1.58,6-.15c3,2.05,6,4.07,9.42,6.4C176,7.24,174.52,3.69,174,0Z"/><path class="cls-2" d="M532,0q1.9,9,3.79,18c.39,1.87.46,3.73-1.47,4.84-1.62.94-3.13.47-4.62-.56-5.61-3.85-11.26-7.66-16.9-11.46-2.12-1.42-3-3.35-1.46-5.48S515,3.78,517,5.13c3.12,2.14,6.25,4.26,10.13,6.89-.82-4.64-1.48-8.33-2.14-12Z"/><path class="cls-2" d="M333,0C332,7.24,332,7.2,339.83,7.93c5,.47,9.92,1,14.88,1.61,2.42.28,4.28,1.44,3.8,4.15s-2.51,3.14-5,2.85c-8.26-1-16.53-1.78-24.8-2.71-5.44-.62-6.26-1.91-4.72-7.16.65-2.22,1.32-4.45,2-6.67Z"/><path class="cls-2" d="M144,700c-1.07-.87,0-1.45.38-2,6-8.15,12.09-16.25,18.12-24.38,1.49-2,3.14-3.86,5.72-2.12,2.9,2,1.53,4.2-.07,6.38-5.42,7.33-10.77,14.71-16.15,22.07Z"/><path class="cls-2" d="M495,700c-1.33-1.4.35-2,.87-2.74,5.77-7.9,11.64-15.73,17.45-23.6,1.48-2,3.16-3.86,5.72-2.12,2.86,1.93,1.57,4.18,0,6.37-5.37,7.34-10.67,14.72-16,22.09Z"/><path class="cls-2" d="M700,16c-6.87-.73-13.75-1.42-20.61-2.22-5.29-.62-6-1.91-4.46-7.2.66-2.2,1.38-4.39,2.07-6.58h7c-.48,2.23-1,4.46-1.47,6.87L700,9Z"/><path class="cls-2" d="M0,200c3.76.42,7.54.72,11.28,1.31,3.19.5,5,2.53,3.23,5.59-4.12,6.93-8.63,13.63-13,20.39C1,227.94.36,227.75,0,227V216c1-1.29,2-2.53,2.88-3.87,3-4.65,3-4.66-2.88-5.13Z"/><path class="cls-2" d="M0,551c4-.47,7.84.83,11.75,1.28,2.73.31,4.42,2.53,2.94,5-4.29,7.19-9,14.13-13.6,21.14C.74,579,.28,578.37,0,578V567a38,38,0,0,0,2.85-4c.75-1.39,2.85-2.71,1.82-4.26-.85-1.3-3-.75-4.67-.73Z"/><path class="cls-2" d="M76,700c1.55-3.85,5.21-6.66,10.94-8.39,9.38-2.84,20.47,1,24.06,8.39H101c-5-3-10-3.28-15,0Z"/><path class="cls-2" d="M427,700c.87-4.69,5-5.87,8.46-7.54,7.73-3.75,21.76-1.81,26.54,7.54H452c-5-2.88-10-3.45-15,0Z"/><path class="cls-2" d="M524,700c-2.35-11,7.19-16.08,11.73-23.63.91-1.51,3-1.45,4.44-.22a3.35,3.35,0,0,1,.57,4.88c-2.37,3.38-4.73,6.79-7.38,10-2.38,2.84-3.16,5.67-1.36,9Z"/><path class="cls-2" d="M173,700c-1.83-10.77,7.11-16.18,11.89-23.63,1-1.52,3-1.44,4.45-.24A3.3,3.3,0,0,1,190,681a121.11,121.11,0,0,1-7.41,10c-2.51,2.85-3,5.7-1.54,9.06Z"/><path class="cls-2" d="M234,0c-1.78,4.15-5,7.29-7.71,10.76a3,3,0,0,1-4.45.5c-4.12-3.32-8.18-6.73-12.23-10.15-.49-.41,0-.83.39-1.11Z"/><path class="cls-2" d="M584,0c-.83,5.24-4.88,8.24-8.24,11.67a2.21,2.21,0,0,1-2.78-.21q-6.3-5.15-12.49-10.39C560,.66,560.61.26,561,0Z"/><path class="cls-2" d="M700,462c-5.29-.53-10.52.22-15.77.7-2.63.25-5.76.89-6.3-2.87-.56-3.93,2.57-3.91,5.27-4.16,5.6-.53,11.2-1.11,16.8-1.67Z"/><path class="cls-2" d="M700,111c-5.64-.48-11.2.56-16.8.93-2.67.17-5.27,0-5.32-3.48,0-3.14,2.38-3.45,4.87-3.58,5.75-.29,11.45-1.48,17.25-.87Z"/><path class="cls-2" d="M0,440c3.23.37,3.08,3.61,4.49,5.47A75.93,75.93,0,0,1,9.64,454c2.44,4.31,1.31,6.45-3.68,6.9C4,461,2,461,0,461Z"/><path class="cls-2" d="M0,90c1.49-1.58,1.8.09,2.29.9,2.5,4.08,5,8.15,7.4,12.31s1.22,6.4-3.78,6.76C4,110.11,2,110,0,110Z"/><path class="cls-2" d="M381,700c-1.2-3.93-2.36-7.88-3.6-11.8-.73-2.28-.08-4,2.06-4.88s3.94.32,4.55,2.51c1.34,4.72,3.67,9.16,4,14.17Z"/><path class="cls-2" d="M30,700c-1.08-3.8-2-7.65-3.28-11.38-.84-2.48-.46-4.41,1.94-5.31,2.58-1,4.05.66,4.69,3C34.59,690.89,37,695.13,37,700Z"/><path class="cls-2" d="M360,700c-1.35-1.7-3.38-1.75-5.26-2.21-2.15-.53-3.7-1.84-3.29-4.17s2.21-3.28,4.47-2.77c5.79,1.32,11.5,2.85,14.08,9.15Z"/><path class="cls-2" d="M623,0c-.51,5-3.31,9-5.49,13.29a2.91,2.91,0,0,1-4.36.9c-1.57-1-2.33-2.37-1.55-4.2C613,6.64,614.53,3.33,616,0Z"/><path class="cls-2" d="M272,0c-.23,5.18-3.28,9.24-5.59,13.55-.69,1.29-2.44,1.59-4,.69-2-1.13-2.22-2.81-1.47-4.69,1.29-3.21,2.7-6.37,4.06-9.55Z"/><path class="cls-2" d="M9,700c-1.24-1.89-3.36-1.75-5.21-2.26-2.18-.6-3.54-1.94-3-4.35.45-2.2,2.1-2.68,4.16-2.59,5.54.25,12.77,4.92,14.08,9.2Z"/><path class="cls-2" d="M413,0c-.27,3.7-3.3,6.73-2.41,10.84.27,1.21-1.58,2.35-3.32,2.26A3.55,3.55,0,0,1,404,10.52c-1.5-3.69.42-7,1-10.52Z"/><path class="cls-2" d="M149,0c-1.12,7.61-5.93,10.08-11.42,5.62C135.57,4,132.32,3.37,132,0Z"/><path class="cls-2" d="M500,0c-2,8.38-6,10.14-12.22,5.11C486,3.68,482.73,3.4,483,0Z"/><path class="cls-2" d="M663,0c.08,3.9-1.83,7.26-3,10.79a3,3,0,0,1-4,2,3.35,3.35,0,0,1-2.47-4.24C654.2,5.64,655.14,2.83,656,0Z"/><path class="cls-2" d="M62,0c-.25,3.87-2.94,7.17-2.47,11.3.14,1.16-1.66,1.89-3.13,1.8C54.44,13,53.57,11.7,53,10c-1.19-3.51.88-6.66,1-10Z"/><path class="cls-2" d="M312,0c.43,3.93-1.78,7.16-2.87,10.68a3,3,0,0,1-3.95,2.07,3.28,3.28,0,0,1-2.47-4.21c.65-2.87,1.52-5.69,2.29-8.54Z"/><path class="cls-2" d="M127,700c-.54-1.75-2.43-2.08-3.46-3.33a3.54,3.54,0,0,1-.32-4.56,2.88,2.88,0,0,1,3.94-1.09c3.83,2.7,8.36,4.63,10.84,9Z"/><path class="cls-2" d="M700,446c-1.91,1.33-2-.73-2.53-1.51-1.69-2.62-3.15-5.38-4.77-8-1.22-2-1.81-4.05.4-5.64,2.58-1.85,4.21-.19,5.59,1.91A8.36,8.36,0,0,0,700,434Z"/><path class="cls-2" d="M700,96c-4.33-3.33-6.08-8.32-8.24-13-.55-1.18.32-2.49,1.63-3.27s2.45-.47,3.7.21,1.2,2.76,2.91,3.07Z"/><path class="cls-2" d="M478,700c-.66-1.66-2.52-2-3.55-3.27-.84-1-1.54-2.15-.92-3.61a3.39,3.39,0,0,1,2.9-2.34c2.53-.27,10.86,6.35,11.57,9.22Z"/><path class="cls-2" d="M285,0c.73,2.47,5,4.49,1.59,7.44s-5.64-.7-7.73-2.67c-1.45-1.37-4.05-2-3.86-4.77Z"/><path class="cls-2" d="M636,0c.43,2.59,5.06,4.88,1.06,7.72-3.36,2.39-5.38-1-7.35-2.93-1.41-1.38-4.05-2-3.71-4.79Z"/><path class="cls-2" d="M267,700a7.64,7.64,0,0,1,3.69-7.56c3-1.71,4.66,1.42,6.46,3.09,1.41,1.33,3.64,2.07,3.85,4.47Z"/><path class="cls-2" d="M618,700a7.19,7.19,0,0,1,3.49-7.55c2.74-1.69,4.57,1,6.1,2.73,1.28,1.45,4.26,1.85,3.41,4.82Z"/><path class="cls-2" d="M0,396c2.89-.47,5.54.77,8.27,1.29A3.26,3.26,0,0,1,11,401.41c-.43,2.14-2,2.92-4.1,2.65-2.29-.3-4.57-.7-6.85-1.06Z"/><path class="cls-2" d="M0,45c2.6.42,5.23.71,7.8,1.28,2.15.49,3.65,1.86,3.15,4.27s-2.42,2.92-4.61,2.57S2.11,52.37,0,52Z"/><path class="cls-2" d="M0,9l3.4.46c2.46.33,4.78,1.17,4.3,4.15S5,17,2.41,16.45C1.61,16.28.8,16.15,0,16Z"/><path class="cls-2" d="M0,360a4,4,0,0,1,.49,0c3.07.44,7.64-.36,7.12,4.41C7.12,368.93,2.88,367,0,367Z"/><path class="cls-2" d="M0,615c.25.19.5.53.76.54,2.47.17,4.84.74,4.7,3.78C5.31,622.67,2.37,622.57,0,623Z"/><path class="cls-2" d="M0,265c2.65-.42,5.22-.15,5.41,3.1.21,3.61-2.73,3.8-5.41,3.9Z"/><path class="cls-2" d="M700,37c-2.32.56-3.53-.81-3.82-2.73-.4-2.69,1.68-3.61,3.82-4.27Z"/><path class="cls-2" d="M700,388c-2.48.27-3.8-1.14-3.83-3.34s1.66-3.36,3.83-3.66Z"/><path class="cls-2" d="M319.69,208.8c7.66,1.23,14.4,2.27,21.12,3.41,2.19.38,3.76,1.58,3.44,4.08s-2.17,3.18-4.4,2.85c-5.43-.81-10.91-1.43-16.25-2.63-4.42-1-4.83,2.7-6.34,4.89-.81,1.17,1,1.33,1.85,1.46,7.57,1.16,15.16,2.16,22.7,3.47,2.31.4,3.28-.56,4.33-2.26,2.69-4.4,5.37-8.82,8.35-13,2.23-3.15,1-3.62-2.1-4-15.66-2.15-31.3-4.5-46.95-6.7-2.64-.38-5.43-.81-5-4.14.48-3.66,3.48-3.25,6.27-2.84q26.92,3.9,53.86,7.74c5.72.82,6.72,2.75,3.72,7.53-4.59,7.33-9.36,14.55-13.84,22-1.71,2.82-3.67,3.86-6.95,3.31-10.67-1.78-21.37-3.33-32.05-5-5.33-.85-6.3-3.1-3.24-7.45,2.4-3.4,5-6.68,7.35-10.09C316.84,209.47,318.31,208.39,319.69,208.8Z"/><path class="cls-2" d="M316.79,573.3c8.81,1.33,17.17,2.55,25.51,3.9,1.81.29,2.73-.45,3.6-1.85,2.9-4.66,5.78-9.33,8.84-13.88,1.68-2.49,1.18-3.13-1.74-3.52-16-2.17-31.92-4.59-47.89-6.82-2.55-.35-4.93-1-4.72-3.92.24-3.33,2.93-3.53,5.62-3.14,18.6,2.67,37.19,5.3,55.78,8,4.25.62,5.28,3,3,6.68-4.83,7.76-9.87,15.39-14.68,23.16-1.53,2.47-3.34,3.27-6.21,2.79-10.49-1.74-21-3.28-31.53-4.93-6.53-1-6.62-2.69-3.61-8.54,5.38-10.43,12.84-13.64,23.8-9.55,2.59,1,5.57.89,8.35,1.36,2.28.38,3.67,1.65,3.37,4.09s-2.14,3.2-4.38,2.87c-4.44-.64-9-.88-13.25-2.21C321.44,566.2,318.85,568.27,316.79,573.3Z"/><path class="cls-2" d="M457,443.15c-6-.84-11.12-1.54-16.22-2.27-3.08-.43-4.23-2.25-3.79-5.27,1.12-7.73,2.17-15.47,3.31-23.2.41-2.74,2-4.07,4.89-3.65,9.87,1.43,19.75,2.82,29.62,4.23,3.82.54,3.62,3.28,3.22,6q-2.75,19.26-5.55,38.51c-.43,3-1,5.9-1.33,8.87-.31,2.57-1.51,4.14-4.22,3.68s-3.08-2.65-2.74-5c1.75-12,3.4-24,5.3-36,1.55-9.75,1.68-9.72-7.91-10.95a107.32,107.32,0,0,1-11.35-1.64c-2.81-.68-3.49.38-3.77,2.76-.47,4-.9,7.94-1.69,11.85-.47,2.38.27,3.18,2.51,3.66,7.18,1.53,7.2,1.62,8.78-5.73.54-2.53,1.46-4.64,4.51-4.1,2.88.5,2.91,2.8,2.51,5.07-.54,3.11-1.28,6.19-1.75,9.31S459.08,443.56,457,443.15Z"/><path class="cls-2" d="M127.51,66.19c-2.5,17.16-4.78,32.8-7.05,48.44-.38,2.6-.94,5.31-4.43,4.6s-2.89-3.34-2.49-6c2.08-13.82,4-27.66,6.11-41.47.36-2.34-.07-3.34-2.5-3.63-6.11-.73-12.23-1.49-18.29-2.55-2.24-.39-2.89.11-3.13,2.26Q95,74.05,93.91,80.2c-.49,2.64.49,3.45,3,3.78,6.67.89,6.66,1,8.26-5.8.56-2.42,1.38-4.75,4.5-4.12,2.77.55,2.91,2.74,2.49,5.09-2.84,15.9-1,13.83-14.91,11.9C83.55,89.13,85.47,89.83,87,78.33c.72-5.28,1.54-10.54,2.2-15.82.46-3.73,2.29-5.16,6.09-4.57,9.36,1.46,18.76,2.77,28.15,4.08C127,62.51,127.85,64.56,127.51,66.19Z"/><path class="cls-2" d="M456.89,92.34c-6.24-.91-11.17-1.67-16.12-2.32-2.83-.38-4.22-1.86-3.83-4.71,1.1-8.07,2.22-16.14,3.45-24.19.34-2.24,1.78-3.59,4.22-3.25,10.21,1.4,20.43,2.74,30.61,4.33,3.36.52,3.2,3.31,2.83,5.91q-2.74,19-5.48,38c-.43,3-1,5.9-1.35,8.88-.3,2.62-1.14,4.73-4.22,4.25s-3.13-2.93-2.77-5.41c2-13.82,3.86-27.66,6.09-41.44.52-3.22-.36-4.05-3.29-4.36-5.78-.62-11.56-1.37-17.28-2.42-2.28-.42-3,.2-3.21,2.25-.52,4.12-1,8.26-1.77,12.33-.54,2.77.55,3.61,3,3.73a22.09,22.09,0,0,1,4.44.62c1.85.48,2.81.12,3-2,.12-1.48.59-2.93.85-4.4.44-2.54,1.43-4.69,4.46-4.18,2.83.48,2.94,2.79,2.55,5.08-.51,2.94-1.25,5.85-1.64,8.81C461,91.53,459.07,92.84,456.89,92.34Z"/><path class="cls-2" d="M96.36,408.94c8.3,1.22,17.84,2.65,27.39,4,3,.42,3.94,2.14,3.54,4.88q-3.48,24.18-7,48.37c-.35,2.44-1.23,4.33-4,3.92-3.07-.45-3.28-2.7-2.89-5.29,2-13.82,3.92-27.66,6.1-41.45.46-2.9.3-4.16-3.06-4.45-5.78-.51-11.55-1.41-17.27-2.46-2.39-.45-3.3,0-3.48,2.45-.19,2.64-.75,5.26-1.16,7.89-1.42,9.2-1.21,7.11,6.08,8.5,3.63.68,3.69-1.33,4.23-3.6.68-2.86-.06-7.47,4.66-6.65,5.21.92,2.6,5.38,2.1,8.21-1.82,10.29-2,10.26-12.15,8.88-2.63-.36-5.26-.95-7.9-1.06-4.58-.2-6.13-2.3-5.36-6.79,1.19-6.88,2-13.82,3-20.72C89.92,409.15,90.8,408.51,96.36,408.94Z"/><path class="cls-2" d="M195.54,134.32c-6.58,9.35-12.68,18-18.81,26.69-3.35,4.74-4.72,4.81-8.79.53-4.24-4.47-8.54-8.88-12.6-13.5-1.88-2.13-3-2.28-4.93,0-4.57,5.27-9.43,10.31-14.17,15.44-1.75,1.89-3.63,4-6.22,1.49s-.62-4.48,1.15-6.38c6-6.48,12-12.93,17.89-19.48,2.57-2.85,4.82-3,7.45-.07,4.23,4.7,8.72,9.16,12.89,13.91,1.93,2.2,2.92,2.28,4.65-.28,5.88-8.66,12-17.17,18-25.72,1.22-1.72,2.21-4,4.86-3.68s3.12,2.73,3.85,4.71q5.47,15,10.84,29.94c.85,2.36,2,5.05-1.38,6.33s-4.33-1.32-5.21-3.75C202,152.06,198.93,143.64,195.54,134.32Z"/><path class="cls-2" d="M522.77,506.34c6.64-9.42,13.11-18.67,19.68-27.85,1.38-1.92,2.3-4.87,5.48-4.33s3.21,3.52,4,5.77c3.51,9.5,6.9,19.05,10.37,28.56.88,2.41,2.08,5.13-1.07,6.47-3.46,1.46-4.54-1.29-5.5-4-3-8.29-6-16.54-9.06-24.82-1.76-.12-2.05,1.47-2.74,2.44-5.51,7.72-10.93,15.5-16.42,23.24-3.34,4.7-4.75,4.77-8.83.47-4.24-4.47-8.54-8.89-12.59-13.53-2-2.25-3.09-2-4.94.13-4.59,5.28-9.42,10.34-14.15,15.5-1.77,1.93-3.75,3.89-6.26,1.35-2.12-2.15-.81-4.17.94-6.05q9.18-9.88,18.25-19.87c2.64-2.93,4.91-2.7,7.47.13C512.37,495.38,517.44,500.67,522.77,506.34Z"/><path class="cls-2" d="M546.36,134.34,529,159c-5.21,7.39-5.61,7.43-11.63,1-3.77-4-7.65-7.91-11.22-12.09-2-2.29-3.08-2-4.92.12-4.6,5.27-9.44,10.33-14.17,15.49-1.79,1.94-3.78,3.86-6.26,1.33-2.11-2.15-.79-4.19,1-6.06,6-6.46,12.08-12.88,17.93-19.5,3-3.4,5.37-3,8.19.16,4.76,5.31,9.72,10.45,14.92,16,6.72-9.52,13.22-18.75,19.75-27.95,1.32-1.85,2.27-4.49,5.06-4.29,3.17.21,3.47,3.24,4.3,5.49,3.56,9.66,7,19.36,10.51,29,.87,2.41,2,5.1-1.26,6.39-3.6,1.43-4.45-1.51-5.38-4.1C552.76,151.79,549.72,143.53,546.36,134.34Z"/><path class="cls-2" d="M195.53,485.17c-6.71,9.51-12.83,18.2-19,26.87-3.11,4.39-4.71,4.49-8.49.51-4.35-4.59-8.73-9.16-12.92-13.9-1.79-2-2.84-1.95-4.61.07-4.71,5.39-9.65,10.58-14.52,15.84-1.65,1.79-3.46,3.56-5.89,1.33s-1.15-4.13.6-6C136.83,503.27,143,496.71,149,490c2.84-3.19,5.17-2.8,7.83.17,3.88,4.35,8.09,8.41,11.86,12.85,2.39,2.81,3.64,3.31,6-.26,5.54-8.5,11.55-16.69,17.42-25,1.21-1.7,2.15-4,4.86-3.7s3.13,2.74,3.85,4.7q5.5,15,10.87,30c.84,2.36,1.91,5.12-1.47,6.31s-4.29-1.39-5.19-3.87C202,502.76,198.87,494.35,195.53,485.17Z"/><path class="cls-2" d="M288.74,377c-7.64,6.89-15,13.58-22.46,20.24-4.15,3.72-5.75,3.45-8.23-1.45-3.91-7.69-7.75-15.42-11.61-23.14-1.26-2.53-3.22-5.47.47-7.27,3.42-1.66,4.55,1.55,5.74,3.9,3.51,6.94,7,13.9,10.63,21.17,7.73-7,15.12-13.69,22.54-20.35,5.62-5,7.29-4.56,9.27,2.54,2.24,8,4.49,15.94,6.93,24.6l13.14-11.05q3-2.58,6.1-5.15c1.74-1.47,3.64-1.89,5.29-.06s1.18,3.74-.58,5.24c-7.72,6.59-15.41,13.22-23.27,19.65-3,2.43-5.27,1.39-6.47-2.75-2.17-7.49-4.15-15-6.24-22.56C289.69,379.49,289.24,378.44,288.74,377Z"/><path class="cls-2" d="M288.94,26c-8.09,7.31-15.46,14-22.89,20.65-3.87,3.47-5.58,3.17-7.92-1.43-4.06-8-8-16-12-24-1.15-2.29-2.47-4.85.62-6.47,3.5-1.85,4.6,1.17,5.8,3.53,3.07,6.07,6.28,12.08,9.1,18.26,1.36,3,2.37,2.67,4.45.74,6.7-6.22,13.54-12.31,20.35-18.42,5-4.46,6.78-3.87,8.62,2.72,2.27,8.13,4.56,16.25,7,24.92,6.39-5.39,12.36-10.38,18.27-15.43,2-1.74,4.19-3.37,6.38-.71,1.9,2.31.41,4.23-1.57,5.89-7.14,6-14.17,12.09-21.34,18-4.08,3.39-6.22,2.63-7.7-2.6C293.72,43.34,291.45,35,288.94,26Z"/><path class="cls-2" d="M614.13,390.48c8.12-7.35,15.73-14.3,23.42-21.17,4.39-3.94,6.65-3.24,8.26,2.52,2.31,8.26,4.55,16.55,7,25.48l18-15.18c2.09-1.76,4.44-3.87,6.78-.9,2,2.59-.06,4.5-2.1,6.21-7,5.86-13.94,11.85-21,17.71-3.87,3.23-6.08,2.55-7.45-2.27-2.42-8.45-4.72-16.94-7.24-26.05l-22,19.92c-4.93,4.45-6.26,4.25-9.16-1.52-4-7.85-7.83-15.75-11.79-23.6-1.12-2.24-2-4.58.67-6.08,3.06-1.72,4.44.6,5.64,3C606.64,375.65,610.23,382.73,614.13,390.48Z"/><path class="cls-2" d="M639.76,26c-7.85,7.08-15.24,13.77-22.65,20.43-4.16,3.73-5.69,3.46-8.2-1.48-4-7.84-7.91-15.71-11.85-23.58-1.21-2.43-2.73-5.21.72-6.82s4.5,1.58,5.68,3.9c3.52,6.92,7,13.86,10.67,21.15,8-7.26,15.68-14.18,23.36-21,4.47-4,6.66-3.39,8.27,2.33,2.33,8.27,4.56,16.57,7,25.6,6.42-5.43,12.34-10.41,18.23-15.42,2-1.7,4.2-3.55,6.41-.9,2.07,2.49.34,4.5-1.78,6.27-7,5.85-14,11.84-21,17.69-4.16,3.47-6.2,2.79-7.69-2.43C644.58,43.32,642.25,34.91,639.76,26Z"/><path class="cls-2" d="M97.46,659.38C92,665.5,87,671.09,82,676.59c-3.69,4-5.85,3.74-8-1.12-3.13-7-6.1-14-9.23-20.94-1-2.21-1.42-4.3,1.09-5.55,2.74-1.38,4.26.22,5.33,2.7,2.49,5.74,5.08,11.43,7.87,17.67,5.49-6.15,10.52-11.85,15.64-17.47,3.83-4.2,6-3.75,8.13,1.57,2.43,6.18,4.77,12.38,7.17,18.56.09.24.37.41.77.85L134.16,645c.53-.64,1.05-1.29,1.6-1.92,1.64-1.92,3.32-4.32,6.12-2s1.15,4.35-.61,6.39c-2.93,3.41-5.75,6.9-8.63,10.34q-9.6,11.49-19.23,23c-3.84,4.55-6.18,4.13-8.37-1.49C102.57,672.88,100.18,666.51,97.46,659.38Z"/><path class="cls-2" d="M448.28,308.6c-5.36,6-10.3,11.51-15.31,17-3.87,4.25-6,3.95-8.27-1.21-3.06-6.81-6-13.66-9-20.48-1-2.32-1.65-4.71,1.28-5.89,2.77-1.13,4.18.69,5.21,3.13,2.37,5.6,4.92,11.14,7.69,17.36L443.69,303c6.18-6.93,7.48-6.73,10.75,1.75,2.2,5.71,4.4,11.43,6.81,17.66l24-28.6c.85-1,1.68-2.07,2.58-3,1.41-1.52,3.12-2.09,4.86-.72,1.9,1.48,2,3.39.46,5.23-3.16,3.86-6.36,7.68-9.56,11.51q-9.45,11.28-18.91,22.57c-4.32,5.15-6.44,4.85-8.84-1.3S451,315.53,448.28,308.6Z"/><path class="cls-2" d="M448.31,659.32C442.87,665.43,438,671,433,676.51c-3.83,4.21-5.93,3.85-8.28-1.36-2.93-6.5-5.79-13-8.66-19.56-1.08-2.46-2.56-5.27,1-6.74s4.47,1.73,5.54,4.09c2.37,5.24,4.65,10.52,7.24,16.41,5.48-6.11,10.51-11.8,15.63-17.4,3.89-4.26,6-3.88,8.15,1.43,2.44,6.17,4.77,12.37,7.17,18.55a6,6,0,0,0,.74,1L484.93,645c1-1.15,1.89-2.33,2.91-3.42,1.41-1.5,3.05-2.13,4.84-.69s1.92,3.42.46,5.25c-2.18,2.72-4.46,5.37-6.7,8C479,663.12,471.51,672.07,464,681c-3.49,4.12-5.93,3.76-7.88-1.16C453.56,673.32,451.15,666.79,448.31,659.32Z"/><path class="cls-2" d="M97.48,308.53c-5.57,6.22-10.53,11.81-15.56,17.33-3.58,3.93-5.78,3.56-8-1.34-3-6.65-5.91-13.34-8.86-20-1-2.32-2.34-5,.87-6.41,3.44-1.54,4.63,1.25,5.73,3.78,2.31,5.3,4.64,10.59,7.32,16.7,5.29-5.93,10.19-11.43,15.1-16.91,4.49-5,6.52-4.66,8.92,1.57s4.75,12.38,7.36,19.21L134.3,294c.53-.64,1.07-1.27,1.59-1.92,1.65-2.06,3.52-4.06,6.16-1.73,2.3,2,1,4.11-.61,6.06-9.52,11.33-19,22.73-28.51,34-3.23,3.82-5.78,3.36-7.62-1.29C102.7,322.52,100.25,315.84,97.48,308.53Z"/><path class="cls-2" d="M291.52,214.22c-11.1-2.11-21.67-4.17-32.26-6.1-2.64-.48-5.35-1-4.89-4.32s3.34-3.18,5.92-2.7c12.1,2.26,24.2,4.51,36.28,6.86,4.38.85,5.22,2.76,3,6.68-3.12,5.47-6.4,10.84-10,16.9,11.14,2.21,21.78,4.34,32.43,6.43,7.18,1.42,14.37,2.76,21.55,4.17,2.38.47,4.91,1.14,4.44,4.27-.52,3.47-3.17,3.2-5.8,2.68-19.26-3.75-38.53-7.46-57.78-11.26-3.82-.75-5.05-3-3-6.51C284.69,225.75,288,220.21,291.52,214.22Z"/><path class="cls-2" d="M642.4,214.21c-11.31-2.14-21.92-4.19-32.55-6.13-2.7-.49-5.23-1.24-4.6-4.54.57-3,3.22-2.92,5.64-2.47q18.39,3.44,36.78,6.91c4.13.78,4.76,3.14,2.79,6.51-3.24,5.57-6.53,11.1-10.06,17.07,17.87,3.54,35.1,7,52.34,10.36.49.1,1,.1,1.49.2,2.53.56,5.28,1.23,4.55,4.64-.65,3-3.19,2.83-5.64,2.35-7.51-1.45-15-2.85-22.54-4.32-11.42-2.24-22.84-4.53-34.26-6.79-5.59-1.1-6.32-2.76-3.36-7.84S639.05,219.89,642.4,214.21Z"/><path class="cls-2" d="M609.81,551.7c12.91,2.43,25.84,4.76,38.71,7.36,3.62.73,3.64,3.4,2,6.18-2.69,4.58-5.36,9.18-8.19,13.68-1.61,2.56-1.9,3.63,1.86,4.31,16.84,3.06,33.61,6.53,50.41,9.82,2.51.49,4.77,1.45,4.22,4.44s-3.15,2.92-5.58,2.53c-.49-.08-1-.11-1.48-.21l-35.72-7c-6.68-1.32-13.38-2.58-20-4-5-1-5.85-2.86-3.33-7.26,2.32-4,4.53-8.15,7.17-12,2.47-3.57,2.3-5-2.43-5.65-9.37-1.36-18.65-3.32-28-5-2.48-.46-4.73-1.4-4.24-4.43C605.58,552.08,607.53,551.45,609.81,551.7Z"/><path class="cls-2" d="M291.56,565.06l-31.67-6c-.66-.13-1.33-.14-2-.29-2.13-.5-3.92-1.6-3.59-4,.37-2.67,2.39-3.36,4.86-2.91l25,4.57c3.6.66,7.2,1.3,10.78,2,6.45,1.33,7.1,2.72,3.85,8.25-2.35,4-4.65,8-7.15,12-1.61,2.53-2.52,3.81,1.78,4.58,16.52,3,33,6.44,49.42,9.67,2.74.54,5.73,1,5,4.68-.67,3.47-3.7,2.76-6.11,2.29q-28.39-5.48-56.76-11.09c-4.9-1-5.7-2.93-3.12-7.39C285,576.12,288.12,570.87,291.56,565.06Z"/><path class="cls-2" d="M325.06,619.52l-8.6,13.26c-1.17,1.82-2.17,3.9-4.91,3.43s-2.88-3-3.44-4.94c-1.21-4.3-2.25-8.64-3.48-13.41-3,4.7-4.31,9.69-6.38,14.34-1.07,2.41-2.05,5-5.26,3.83s-2.38-3.83-1.39-6.26q4.8-11.74,9.59-23.49c.77-1.89,1.6-3.91,4-3.81,2.68.1,3.33,2.21,3.88,4.44,1.34,5.39,2.83,10.75,4.54,17.21,3.18-4.94,5.84-9.06,8.48-13.18,1.1-1.72,2.18-3.45,4.65-3,2.18.41,2.69,2.2,3.27,4,1.43,4.35,2.89,8.69,4.35,13,1.83-.38,2.1-1.87,2.78-2.91,4.79-7.25,7.64-8.37,16.05-6.33,1.87.45,3,1.39,3,3.34,0,2.24-1.56,4-3.32,3.51-8.41-2.42-10.25,4.36-13.54,9.17-.57.83-1,1.71-1.58,2.55-1.09,1.66-2.11,3.62-4.51,3.32s-3-2.28-3.58-4.26C328.39,629.1,326.89,624.91,325.06,619.52Z"/><path class="cls-2" d="M325.07,268.67c-3.38,5.23-6.26,9.6-9.07,14-1,1.62-2.14,3.08-4.29,2.79s-2.84-2.08-3.32-3.91c-1.21-4.66-2.4-9.33-3.91-15.22-2.38,5.68-4.41,10.4-6.33,15.17-1,2.46-2.06,5-5.29,3.6s-2.15-3.95-1.16-6.37q4.82-11.76,9.57-23.54c.78-1.92,1.71-3.76,4.2-3.54s3.07,2.11,3.58,4.17c1.36,5.48,2.83,10.94,4.54,17.47,3.13-4.83,5.87-9.06,8.6-13.29,1-1.55,1.95-3.23,4.18-3,2.47.24,3.05,2.2,3.68,4.15,1.38,4.27,2.84,8.51,4.33,13,2.48-.9,3.18-3.33,4.16-5.19,2-3.79,4.68-5.42,8.9-4.42a18.47,18.47,0,0,0,3,.21c2.62.17,5.94-.29,5.77,3.68-.16,3.81-3.34,3.76-6,3.31-3.66-.62-5.88.58-7.54,3.91a65.9,65.9,0,0,1-5.61,8.84c-2.54,3.52-5.43,3.18-6.94-.87C328.38,279,327,274.31,325.07,268.67Z"/><path class="cls-2" d="M59.42,177.63c-6.34-4.3-11.61-8-17-11.51-3.23-2.07-3.72-4.22-1.51-7.38,4.36-6.26,8.54-12.64,13-19.36-6,0-11.73,0-17.41,0-2.7,0-5.86.43-5.9-3.46,0-3.42,2.88-3.58,5.45-3.66,7.82-.25,15.64-.46,23.46-.69,1.87-.06,3.67-.08,4.68,2,.89,1.82,0,3.19-.95,4.59C59,144.5,55,151,50.37,157.12c-2.67,3.52-1.78,5,1.59,7,6,3.62,11.6,7.77,17.4,11.65,1.74,1.16,3.29,2.34,2.76,4.77-.56,2.59-2.79,2.59-4.7,2.89-10.34,1.65-20.71,3.19-31.05,4.85-2.61.42-4.87.22-5.29-2.84s2.1-3.81,4.47-4.19C43.09,180.08,50.64,179,59.42,177.63Z"/><path class="cls-2" d="M59.39,528.43c-5.92-4-10.93-7.37-15.92-10.76s-5.2-4.08-1.88-9c4-6,8.07-12.07,12.35-18.45-6.24,0-12,0-17.69,0-2.55,0-5.45.36-5.62-3.19-.17-3.39,2.5-3.78,5.18-3.86q11.71-.36,23.44-.79c1.86-.06,3.69-.08,4.82,1.79s.12,3.48-.91,5c-4.36,6.48-8.53,13.09-13.16,19.37-2.19,3-1.49,4.25,1.29,6,6,3.81,11.85,8,17.8,11.92,1.87,1.25,3.69,2.44,3,5.11-.66,2.5-2.86,2.42-4.8,2.73-9.68,1.55-19.34,3.2-29,4.61-2.71.39-6.63,1.91-7.12-2.7-.42-4,3.27-3.82,6-4.25Z"/><path class="cls-2" d="M410.19,528.44c-6.14-4.17-11.16-7.83-16.43-11.08-3.9-2.4-4.33-4.79-1.65-8.48,4.28-5.89,8.2-12,12.68-18.69-6.34,0-12,0-17.71,0-2.6,0-5.49.2-5.68-3.22s2.51-3.8,5.22-3.88q11.75-.35,23.47-.79c1.9-.07,3.75-.05,4.82,1.83s.13,3.5-.93,5.06c-4.46,6.62-8.81,13.32-13.41,19.84-1.6,2.26-1.58,3.42.87,5,6.32,4,12.43,8.35,18.65,12.51,1.71,1.15,3.44,2.26,2.93,4.7s-2.56,2.68-4.6,3c-10,1.55-20,3.21-30.07,4.73-2.54.38-5.81,1.34-6.34-2.59-.51-3.77,2.66-4,5.34-4.38C394.51,530.91,401.67,529.78,410.19,528.44Z"/><path class="cls-2" d="M410.19,177.61c-6.21-4.22-11.32-7.93-16.67-11.25-3.75-2.32-4-4.61-1.5-8.1,4.33-6,8.34-12.34,12.73-18.89-6.19,0-11.9-.05-17.61,0-2.6,0-5.5.18-5.72-3.2s2.57-3.81,5.23-3.89c8-.23,16-.55,24-.67,4.62-.07,6,2.48,3.5,6.4-4.42,6.85-8.95,13.63-13.66,20.28-1.68,2.38-1.29,3.45,1.06,4.94C407.42,167,413.15,171,418.92,175c2,1.37,4.76,2.33,4.07,5.57-.65,3.05-3.51,2.76-5.66,3.11-9.85,1.62-19.74,3-29.6,4.57-2.65.42-5.29.76-5.75-2.75s2.52-3.85,4.95-4.25C394.29,180,401.67,178.92,410.19,177.61Z"/><path class="cls-2" d="M694.58,166.36a23.1,23.1,0,1,1-23.33-23A23.17,23.17,0,0,1,694.58,166.36Zm-7.19.7A15.94,15.94,0,1,0,671,182.4,15.86,15.86,0,0,0,687.39,167.06Z"/><path class="cls-2" d="M223.23,362.83a26.29,26.29,0,0,1-2.69-1.7c-7.1-5.77-14.14-11.61-21.27-17.35-2.75-2.22-3.17-4.39-.68-7.12s4.83-5.51,7.08-8.39c2-2.57,4.1-3.1,6.8-1.07,4.12,3.1,8.31,6.1,12.48,9.13,2,1.45,3.09,3.29,1.42,5.48s-3.77,1.52-5.71.1a79.94,79.94,0,0,1-7.6-5.64c-2.74-2.55-4.05-.9-5.92,1.08-2.27,2.4-.49,3.32,1.08,4.6,4.14,3.34,8.3,6.67,12.34,10.14,1.78,1.52,2.9,2.16,4.59-.32,3.07-4.53,9.26-8.86,9.13-13.12-.13-4.44-7.8-6.68-12-10.13-2.57-2.11-5.35-3.95-8-5.95-1.74-1.32-2.9-2.93-1.41-5.08s3.56-2.05,5.59-.56q11.66,8.58,23.31,17.14c2.49,1.82,2.93,3.83,1,6.34q-7.8,10.05-15.53,20.15A4.94,4.94,0,0,1,223.23,362.83Z"/><path class="cls-2" d="M585.92,338.67c-.19-1.39-1.42-1.8-2.29-2.45-5.88-4.37-11.79-8.69-17.69-13-1.92-1.42-4.07-2.95-2.24-5.66,1.93-2.88,4.22-1.69,6.41-.07,7.22,5.35,14.4,10.76,21.72,16,3.26,2.32,3.87,4.5,1.22,7.78-4.92,6.08-9.66,12.3-14.31,18.59-2.35,3.17-4.53,3.88-7.79,1.1-6.83-5.84-13.83-11.49-20.83-17.13-2.79-2.25-3.06-4.45-.65-7.14s4.81-5.53,7.06-8.42c2-2.6,4.15-3,6.82-1,4.13,3.09,8.33,6.08,12.49,9.13,1.94,1.43,3.14,3.22,1.36,5.46s-3.77,1.52-5.71.1c-2.82-2.07-5.76-4-8.44-6.21-2.85-2.36-3.55.48-5,1.73-2.13,1.8-1.06,2.89.59,4.2,4.44,3.51,8.79,7.13,13.18,10.71,1.13.93,2.06,2.25,3.55.21,3.14-4.3,6.48-8.46,9.73-12.67C585.38,339.48,585.64,339.06,585.92,338.67Z"/><path class="cls-2" d="M671.74,540.28a23,23,0,0,1-23.35-22.84,23.09,23.09,0,0,1,46.17-.51A22.91,22.91,0,0,1,671.74,540.28Zm-.45-7.07a15.79,15.79,0,0,0,16.16-15.93,16,16,0,1,0-31.92.07A15.83,15.83,0,0,0,671.29,533.21Z"/><path class="cls-2" d="M320.85,540.27a22.7,22.7,0,0,1-23.16-22.89,23.1,23.1,0,0,1,23-23.19A23.42,23.42,0,0,1,343.79,517,23.08,23.08,0,0,1,320.85,540.27Zm-.17-7.06a16,16,0,0,0,16-15.66,16.39,16.39,0,0,0-16.07-16.3,16,16,0,0,0-15.88,16.32A15.7,15.7,0,0,0,320.68,533.21Z"/><path class="cls-2" d="M320.67,143.39a23.07,23.07,0,0,1,.23,46.14,23.07,23.07,0,1,1-.23-46.14Zm.12,7.1a16,16,0,0,0-.27,31.93,16,16,0,1,0,.27-31.93Z"/><path class="cls-2" d="M444.07,339.88a22.72,22.72,0,0,1,23.15,22.91,23,23,0,0,1-23,23.15,23,23,0,0,1-.13-46.06Zm.14,7a16.09,16.09,0,0,0-16,16.24,16.31,16.31,0,0,0,16.1,15.74,16,16,0,0,0,15.85-15.83A15.78,15.78,0,0,0,444.21,346.92Z"/><path class="cls-2" d="M93.58,339.89a22.88,22.88,0,0,1,22.89,23.23,23.08,23.08,0,1,1-22.89-23.23ZM109.31,363a15.73,15.73,0,0,0-15.46-16.1,16,16,0,0,0-16.44,15.74A16.26,16.26,0,0,0,93.49,378.9,16,16,0,0,0,109.31,363Z"/><path class="cls-2" d="M221.46,40.88c2.09-7,3.87-12.83,5.62-18.71.54-1.86,1.35-3.55,3.45-3.82s3.24,1.27,4.12,3q8.9,17.28,17.8,34.54c1.08,2.11,1.54,4.31-.87,5.67-2.7,1.54-4.31-.22-5.48-2.51-4.55-8.83-9.09-17.67-14.28-27.76-1.94,6.42-3.44,11.68-5.14,16.89-.63,2-.78,4.46-3.57,4.88-3.06.46-3.91-2-5.06-4-5.83-9.87-11.61-19.78-17.44-29.65-1.39-2.36-3.16-4.94.14-6.85s4.66,1.14,6,3.39C211.49,23.92,216.18,31.92,221.46,40.88Z"/><path class="cls-2" d="M582.42,382.9c-1.8,5.78-3.56,11.27-5.19,16.81-.59,2-1.14,3.94-3.57,4.23-2.21.26-3.19-1.37-4.14-3Q560.3,385.27,551,369.59c-1.27-2.16-2.26-4.49.39-6.1,3-1.78,4.46.43,5.81,2.75,4.77,8.13,9.61,16.23,15,25.32,2.1-6.72,4-12.43,5.63-18.18.6-2,1.28-3.95,3.62-4.2s3.39,1.76,4.31,3.54c5.78,11.22,11.51,22.47,17.31,33.68,1.19,2.29,1.87,4.56-.83,6s-4.22-.49-5.37-2.73q-5.82-11.29-11.69-22.56C584.48,385.72,584,384.07,582.42,382.9Z"/><path class="cls-2" d="M582.62,31.33c-2.06,6.72-3.84,12.42-5.53,18.16-.56,1.89-1.34,3.43-3.55,3.6-2,.14-2.95-1.14-3.84-2.65q-9.45-16.14-19-32.25c-1.24-2.1-1.58-4.19.79-5.63s4.1,0,5.29,2.06c4.07,6.86,8.06,13.77,12.15,20.62.9,1.51,1.44,3.33,3.56,4.68,1.84-6,3.68-11.71,5.36-17.49.6-2.07,1.38-3.93,3.72-4.09,2.11-.15,3.14,1.53,4,3.22q8.76,17.09,17.56,34.13c1.22,2.35,1.69,4.69-1,6s-4.17-.67-5.34-3C592.3,49.87,587.69,41.08,582.62,31.33Z"/><path class="cls-2" d="M231.8,382.21c-2.12,6.83-3.87,12.33-5.51,17.87-.55,1.85-1.18,3.54-3.35,3.85s-3.23-1.26-4.2-2.9q-9.35-15.9-18.75-31.79c-1.21-2.05-1.86-4.17.49-5.69,2.61-1.68,4.3-.09,5.63,2.16,4.95,8.42,9.92,16.81,15.34,26,2-6.71,3.82-12.5,5.54-18.32.59-2,1.26-4,3.64-4.21s3.39,1.72,4.31,3.52L252,405.91c1.19,2.31,2.47,4.88-.56,6.5-3.43,1.84-4.59-1.1-5.83-3.51C241.25,400.39,236.82,391.88,231.8,382.21Z"/><path class="cls-2" d="M83,486.33c-1.15,5.57-2.06,9.77-2.88,14-.44,2.27-1.62,3.86-4,3.48-2.58-.41-3.45-2.36-2.95-4.87,1.56-7.82,3.17-15.64,4.7-23.47.34-1.78,1-3.2,2.94-3.53,2.16-.36,3.37.82,4.27,2.65,2.71,5.48,5.48,10.94,8.87,17.68l4-25.07c.65-4.11,1.35-8.21,1.94-12.32.36-2.5,1.5-4.22,4.2-3.82s3.19,2.59,2.81,4.95q-3.75,23.65-7.54,47.3c-.3,1.9-.79,3.63-3.11,3.93s-3.34-1-4.22-2.79C89.26,498.8,86.44,493.18,83,486.33Z"/><path class="cls-2" d="M444.81,492.34c2.09-13,4-24.64,5.82-36.3.4-2.52.65-5.47,4.16-5,3.73.55,3.22,3.45,2.76,6.25-2.42,14.94-4.76,29.9-7.16,44.85-.33,2.08-.24,4.53-3.14,5-3.11.52-3.91-1.93-4.94-4-2.62-5.18-5.19-10.37-8.12-16.24-2,4.6-2.15,8.9-3.11,13-.56,2.41-1.59,4.28-4.25,3.82s-3.22-2.61-2.75-5c1.55-7.83,3.15-15.65,4.68-23.48.35-1.81,1.1-3.12,3.09-3.37s3.14.84,3.94,2.44C438.62,479.94,441.42,485.56,444.81,492.34Z"/><path class="cls-2" d="M444.85,141.51c2-12.65,3.69-24,5.56-35.27.46-2.75.26-6.92,4.75-6,3.82.82,2.66,4.19,2.2,7-2.39,14.75-4.69,29.51-7,44.27-.34,2.18-.51,4.49-3.34,4.83s-3.6-1.82-4.57-3.77c-2.64-5.3-5.31-10.58-8.6-17.12-1.12,5.42-2,9.52-2.8,13.65-.46,2.44-1.62,4.21-4.29,3.72s-3.12-2.69-2.66-5c1.49-7.66,3-15.3,4.54-22.95.38-1.9,1-3.59,3.2-3.89s3.29,1.16,4.15,2.88C438.73,129.35,441.47,134.8,444.85,141.51Z"/><path class="cls-2" d="M222.9,564.57c-1.79.57-3.68,1.2-5.58,1.77-8.18,2.48-14.24-1.36-15.5-9.78-.19-1.32-.35-2.64-.56-4-.77-4.84-2.42-5.86-7.2-4.45-1.27.38-2.49.94-3.76,1.31-8,2.33-14.37-1.88-15.28-10.21-.36-3.3-.29-6.59-3.23-9-1.43-1.21-1.19-3.09.15-4.45,1.52-1.55,3.33-1.35,5-.21,3.63,2.53,4.47,6.42,4.92,10.46.83,7.41,2.11,8.22,9.25,5.8q15.16-5.16,17.35,10.94c1.07,7.82,2.13,8.48,9.6,6,9.79-3.3,16.12.7,17.05,10.78.26,2.83.49,5.56,2.92,7.65,1.62,1.4,1.47,3.27-.08,4.82s-3.3,1.18-4.93,0c-4.07-3-4.64-7.47-4.93-12C227.86,566.69,226.77,564.44,222.9,564.57Z"/><path class="cls-2" d="M207,446.41c0,3.8-2,6.6-4.52,9.11-2.14,2.11-4.32,4.06-4.37,7.49,0,1.92-1.6,2.93-3.46,2.84a3.44,3.44,0,0,1-3.3-3.2c-.53-3.35.74-6.21,2.85-8.71,1.4-1.64,3.05-3.07,4.45-4.72,2-2.33,1.73-4.58-.73-6.42-1.32-1-2.81-1.76-4.19-2.67-7.5-5-8.35-12.32-2.18-18.95.91-1,1.9-1.86,2.81-2.83,2.64-2.82,2.27-5.31-.88-7.46-.41-.28-.83-.55-1.25-.82-10.62-6.82-11.43-13.05-2.79-21.94,1.53-1.58,2.84-3.09,2.91-5.53.08-2.25,1.44-3.79,3.91-3.53s3.06,2.23,3.1,4.36c.08,4.2-2.29,7.11-5.08,9.88-5.08,5.07-4.84,6.74,1.28,10.55,9.38,5.84,10.27,12.91,2.61,20.71-5.18,5.28-5,6.94,1.45,10.85C203.86,438,207,441.12,207,446.41Z"/><path class="cls-2" d="M573.83,564.53c-1.82.58-3.71,1.21-5.61,1.79-8,2.46-13.91-1.05-15.47-9.21-.06-.33-.14-.65-.19-1-1.67-9.71-1.67-9.71-10.89-6.85-8.62,2.68-14.73-1.38-15.84-10.46-.38-3.09-.33-6.26-3.16-8.59-1.4-1.15-1.22-3.11.1-4.47,1.52-1.57,3.34-1.33,5-.2,3.5,2.37,4.33,6.08,4.87,10,1.15,8.3,1.81,8.69,9.78,6,9.45-3.13,15.67.85,16.78,10.71.91,8.22,2.07,9,9.7,6.41,9.92-3.33,16.31.88,17.13,11.33.2,2.51.35,4.93,2.51,6.76,1.81,1.53,2,3.4.24,5.17s-3.65,1.07-5.33-.3c-3.54-2.9-4.23-7-4.45-11.2C578.83,567.17,578,564.47,573.83,564.53Z"/><path class="cls-2" d="M542.07,110.13c.28-4.18,2.8-7,5.54-9.75,4.65-4.66,4.41-6.47-1.11-9.94-10.19-6.41-11-13-2.53-21.66,4.38-4.51,4.18-6.36-1-9.64-10.52-6.65-11.25-12.94-2.51-22,1.53-1.59,2.78-3.13,2.79-5.57a3.25,3.25,0,0,1,3.55-3.41c2.38.12,3.3,1.78,3.42,4.1.22,4.46-2.33,7.43-5.21,10.31-4.82,4.83-4.57,6.71,1.18,10.28,9.87,6.13,10.61,12.85,2.36,21.34-4.46,4.58-4.21,6.57,1.23,10,10.07,6.28,10.9,12.89,2.7,21.33-1.61,1.66-3.41,3.16-3.38,5.84,0,2.42-1.37,3.84-3.77,3.55C542.62,114.58,542,112.46,542.07,110.13Z"/><path class="cls-2" d="M694.93,140.3c-.68,2.6-2.22,3.82-5.1,2.94-4.28-1.31-6.17-4.75-7.76-8.51-2.94-6.95-4.34-7.32-10.5-2.91-8.63,6.19-15.69,4.26-19.86-5.43-3.11-7.23-4.37-7.57-10.89-2.92-8.43,6-15.55,4.08-19.58-5.37-1.11-2.6-1.88-5.22-4.94-6.48-1.91-.79-2.35-2.8-1.28-4.67s2.68-2.18,4.7-1.42c4.14,1.55,6,4.9,7.59,8.72,2.74,6.7,4.33,7.08,10.22,2.85,9.18-6.6,15.92-4.66,20.42,5.88,2.67,6.25,4.39,6.72,10,2.73,9.24-6.61,15.93-4.75,20.41,5.69,1,2.29,1.83,4.65,4.53,5.62C694.21,137.51,694.8,138.74,694.93,140.3Z"/><path class="cls-2" d="M394.45,284.67c0,4-1.88,6.76-3.6,9.61-3,5-2.31,6.83,3.27,8.75,3.15,1.08,6.35,2.05,8.58,4.77,3.26,4,3.28,8.95.06,14.39-4.49,7.57-4.23,8.35,3.79,11.2,9.42,3.35,11.93,10.26,6.74,18.81-1.56,2.58-3.1,5-2.45,8.3.36,1.8-1,3.12-2.88,3.45a3.3,3.3,0,0,1-3.88-2.4c-1.49-4.14-.12-7.78,2.08-11.32,4.38-7,4-8-3.92-10.83-9.61-3.41-12-10.34-6.63-19.16,4.07-6.68,3.62-7.87-3.94-10.5-9.71-3.38-12.21-10.31-6.91-19.11,1.1-1.83,2.81-3.51,2.51-5.83-.37-2.94-.32-5.79,3.45-5.68S394.1,282.57,394.45,284.67Z"/><path class="cls-2" d="M191.21,110.5c.3-4.26,2.53-7.07,5.17-9.72,5.12-5.16,4.91-6.83-1.1-10.58-9.61-6-10.43-12.91-2.49-21.06,4.85-5,4.66-6.6-1.16-10.23q-14.49-9-2.74-21.06c1.75-1.79,3.52-3.41,3.54-6.28A3.23,3.23,0,0,1,196,28.18c2.45.1,3.29,1.87,3.39,4.11.21,4.43-2.33,7.41-5.22,10.3-4.87,4.86-4.62,6.68,1.15,10.27,9.86,6.12,10.63,12.89,2.42,21.33-4.47,4.6-4.23,6.59,1.19,10,10.22,6.38,11,12.87,2.42,21.67-1.51,1.56-3.06,3-3.08,5.47s-1.29,3.86-3.72,3.62C191.78,114.64,191.29,112.46,191.21,110.5Z"/><path class="cls-2" d="M94,141.44c2.08-12.95,4-24.57,5.8-36.21.4-2.59.73-5.44,4.1-5.06,3.75.43,3.32,3.51,2.9,6.22-2.32,14.77-4.62,29.55-7,44.31-.38,2.33-.25,5.36-3.64,5.75-3,.34-3.72-2.3-4.75-4.32-2.62-5.15-5.17-10.34-8-16.06-2,4.47-2.06,8.82-3.08,12.9-.65,2.6-1.66,4.61-4.61,3.85-2.57-.67-2.87-2.86-2.37-5.25,1.54-7.48,3.07-15,4.51-22.47.37-1.92.86-3.66,3-4,2.44-.44,3.51,1.21,4.46,3.13C87.9,129.52,90.62,134.81,94,141.44Z"/><path class="cls-2" d="M550.2,384c0,4-2.47,6.72-5.09,9.36-4.89,4.9-4.69,6.77.94,10.3,10,6.25,10.81,12.93,2.58,21.32-4.63,4.72-4.36,6.62,1.43,10.21,9.7,6,10.52,12.86,2.52,21.06-1.74,1.78-3.56,3.42-3.52,6.3a3.11,3.11,0,0,1-3.58,3.29c-2.08-.13-3.22-1.64-3.36-3.71-.3-4.18,1.89-7.24,4.64-10.07,5.83-6,5.7-6.91-1.4-11.41-8.65-5.48-9.43-12.73-2.19-20.21,5.53-5.7,5.38-6.87-1.42-11.14-8.71-5.47-9.59-12.75-2.47-20.17,1.68-1.75,3.89-3.14,3.89-6.09,0-2.52,1.31-4.26,4-3.93S550.3,381.66,550.2,384Z"/><path class="cls-2" d="M267.24,105.1a10.6,10.6,0,0,1,7.46,5.37c1.14,2,1.91,4.23,2.92,6.32,1.57,3.21,3.91,3.85,6.91,1.88.42-.27.82-.58,1.23-.86,10.81-7.45,16.27-5.94,21.59,6,2.34,5.22,4.35,5.74,9.16,2.34,10.09-7.15,16.38-5.4,21.31,6,1,2.24,2.12,4,4.47,5a3,3,0,0,1,1.44,4.26c-.87,1.88-2.43,2.52-4.54,1.9-4.3-1.27-6.29-4.63-7.91-8.38-3.14-7.26-4.28-7.57-10.8-2.92-8.33,6-15.49,4-19.55-5.44-3.22-7.49-4.32-7.78-11.2-2.91-8.18,5.78-15.27,3.83-19.21-5.38-1.18-2.75-2-5.56-5.28-6.8-1.55-.59-1.76-2.32-1.33-3.9S265.65,105.27,267.24,105.1Z"/><path class="cls-2" d="M344,491.36c-.55,2.74-2.49,3.46-5.13,2.67-4.05-1.23-5.95-4.53-7.51-8.12-3.18-7.36-4.38-7.69-10.78-3.12-8.56,6.12-15.59,4.09-19.77-5.71-3-7.05-4.34-7.43-10.5-3-8.71,6.29-15.76,4.45-19.91-5.27-1.12-2.61-2-5.15-5-6.42-2-.85-2.12-2.93-1.16-4.73s2.58-2,4.33-1.43c4.13,1.4,6.21,4.65,7.79,8.5,2.91,7.08,4.4,7.46,10.48,3.1,8.94-6.42,15.78-4.5,20.12,5.65,2.86,6.68,4.42,7.14,10.2,3,9.09-6.54,16-4.6,20.38,5.81,1,2.33,1.91,4.58,4.54,5.59C343.44,488.43,344,489.63,344,491.36Z"/><path class="cls-2" d="M694.92,491.27c-.69,2.77-2.55,3.6-5.23,2.78-4.05-1.25-6-4.54-7.51-8.14-3.17-7.38-4.32-7.71-10.74-3.11-8.53,6.11-15.62,4.06-19.79-5.73-3-7-4.38-7.38-10.54-3-8.76,6.28-15.77,4.45-19.9-5.28-1.11-2.63-2-5.19-5-6.44-1.7-.69-2.12-2.49-1.35-4.27.89-2.05,2.6-2.52,4.55-1.87,4.14,1.39,6.21,4.67,7.79,8.52,2.91,7.09,4.37,7.47,10.49,3.08,8.94-6.42,15.83-4.47,20.15,5.68,2.84,6.68,4.38,7.13,10.18,3,9-6.43,15.89-4.57,20.17,5.43,1,2.46,1.95,4.95,4.81,6C694.36,488.43,694.88,489.72,694.92,491.27Z"/><path class="cls-2" d="M174.5,173.86c3.15.42,5,2.64,5.95,5.34A39.7,39.7,0,0,1,182,187c.64,4.7,2.57,6,7.16,4.65,1.11-.33,2.16-.85,3.27-1.19,8.42-2.6,14.51,1.23,15.84,9.95.2,1.31.37,2.64.58,4,.74,4.45,2.55,5.58,6.95,4.29,1.27-.37,2.47-1,3.74-1.36,8.28-2.38,14.66,1.92,15.56,10.5.33,3.13.28,6.28,3.09,8.62,1.43,1.19,1.34,3,.05,4.46-1.46,1.65-3.18,1.56-4.93.41-3.92-2.58-4.63-6.69-5.1-10.89-.75-6.84-2.15-7.75-8.64-5.57-10.8,3.64-16.39.13-18-11.3-1-7.13-2.24-7.9-9.1-5.58-10.43,3.51-16.54-.41-17.55-11.31-.26-2.7-.63-5.25-3-7.1a2.9,2.9,0,0,1-.63-3.68A3.08,3.08,0,0,1,174.5,173.86Z"/><path class="cls-2" d="M52.7,357.21c-.08-2.74,1.68-5.37,3.34-8.07C59.31,343.81,58.67,342,53,340c-11.72-4.09-13.91-10.18-7.52-20.81,3.12-5.18,2.39-7.09-3.48-9.1-11.41-3.92-13.63-10.12-7.35-20.5,1.21-2,2.31-3.89,1.66-6.5-.5-2,.78-3.58,2.86-4s3.34.85,4,2.84c1.47,4.27-.36,7.78-2.46,11.25-4,6.6-3.6,7.63,3.73,10.21C54.58,307,57,313.87,51.25,323.2c-3.71,6.07-3.15,7.55,3.72,9.91,10.3,3.53,12.77,10.39,7.11,19.7-1,1.68-2.48,3.23-2.24,5.4.31,2.85.44,5.61-3.47,5.73C54,364,52.65,361.56,52.7,357.21Z"/><path class="cls-2" d="M589.91,228a3.5,3.5,0,0,1-1.86,3.73,3.75,3.75,0,0,1-4.2-.55c-3.53-2.65-4.44-6.46-4.8-10.54-.62-7-2.15-8-8.95-5.69-10.4,3.52-16.3-.19-17.78-11.18-1-7.5-2.06-8.15-9.31-5.72-10,3.38-16-.47-17.26-11.17-.32-2.62-.47-5.24-2.84-7.19-1.63-1.35-1.53-3.34,0-4.84s3.31-1.16,5,0c3.66,2.58,4.26,6.53,4.79,10.54.94,7.16,2.19,7.94,9,5.62q15.57-5.28,17.56,11.27c.86,7.07,2.37,8,9,5.76,10.65-3.62,16.78.37,17.75,11.6.2,2.35.45,4.61,2.47,6.28A8,8,0,0,1,589.91,228Z"/><path class="cls-2" d="M628,659c6.06-4.4,11.29-8.11,16.42-12a8.3,8.3,0,0,1,5.91-2c14.25,1.07,28.51,2,42.77,3,2.51.17,4.25,1.25,4,4s-2.47,3.18-4.81,3c-11.93-.83-23.9-1.39-35.8-2.62-4.83-.5-8.56.41-12.3,3.45-5.42,4.38-11.22,8.3-16.86,12.39-1.47,1.06-2.91,2.37-4.94,1.18s-2-3.15-1.82-5.23c.56-6.63,1.07-13.26,1.44-19.9.14-2.6.79-5,3.66-4.93,3.28.06,3.67,2.69,3.43,5.45C628.64,649.1,628.36,653.41,628,659Z"/><path class="cls-2" d="M277.24,658.82c5.74-4.17,10.87-7.77,15.84-11.58a10.1,10.1,0,0,1,7.36-2.23c13.77,1.07,27.55,2,41.33,3,2.42.17,4.43.83,4.41,3.61,0,3.18-2.31,3.62-4.9,3.44-12.45-.9-24.9-1.69-37.34-2.73a12,12,0,0,0-9.18,2.46c-6,4.73-12.31,9.08-18.5,13.58-1.49,1.09-2.95,2.22-5,1-1.72-1.08-1.71-2.7-1.6-4.39.46-7,.95-13.94,1.39-20.92.17-2.6,1.05-4.83,4-4.57,2.69.23,3.23,2.39,3,4.83C277.81,648.7,277.59,653.19,277.24,658.82Z"/><path class="cls-2" d="M277.21,308.06c5.71-4.17,11-7.89,16.09-11.81a10,10,0,0,1,7.39-2.13c13.45,1.07,26.91,2,40.37,2.92,2.66.18,5.28.49,5.09,4-.18,3.32-2.77,3.23-5.19,3.06-12.63-.85-25.27-1.6-37.88-2.66a10.24,10.24,0,0,0-7.78,2.15c-6.21,4.76-12.63,9.25-18.94,13.87-1.52,1.11-3,2.21-5,1.09s-1.82-3-1.69-4.84q.72-10.23,1.38-20.44c.17-2.58.9-4.85,4-4.63s3.26,2.73,3.08,5.22C277.8,298.3,277.55,302.76,277.21,308.06Z"/><path class="cls-2" d="M628,308.12c5.92-4.34,11-8,16-11.8a10,10,0,0,1,7.34-2.21c13.59,1.08,27.19,2,40.79,2.94,2.49.17,4.9.6,4.86,3.71,0,3.64-2.85,3.49-5.42,3.31-12.61-.84-25.22-1.56-37.8-2.65a10.45,10.45,0,0,0-7.77,2.21c-6.23,4.7-12.59,9.23-18.89,13.84-1.51,1.11-3,2.2-5,1s-1.87-2.91-1.71-4.84c.55-6.79,1.06-13.59,1.49-20.39.17-2.6.87-4.81,3.91-4.61s3.35,2.65,3.15,5.17C628.68,298.26,628.37,302.73,628,308.12Z"/><path class="cls-2" d="M331.6,357.8l21.6,2.31c2.74.3,5.8.68,5.3,4.38-.47,3.4-3.37,3-5.95,2.69-7.95-.89-15.91-1.62-23.84-2.59-5.59-.69-6.28-1.86-4.66-7.16,3.05-10,6.05-20,9.3-30,.88-2.7.48-3.39-2.36-3.53-6-.29-12-.94-17.93-1.47-2.37-.2-4.4-1-4.1-3.89s2.34-3.32,4.75-3.13c7.63.61,15.28,1.16,22.9,1.85,5.85.53,6.7,1.83,5,7.38-3,9.69-6,19.35-9,29C332.26,355,332,356.23,331.6,357.8Z"/><path class="cls-2" d="M586.87,425.68c-7.79-2.34-14.54-4.42-21.33-6.36-2.46-.71-4.69-1.67-3.91-4.63.86-3.28,3.36-2.93,6-2.11,9,2.75,18.12,5.39,27.2,8,2,.57,3.93,1.11,4.14,3.62.18,2.22-1.46,3.16-3,4.14-6.5,4-12.89,8.23-19.52,12-2.8,1.6-3.86,3.72-4.37,6.65-1.57,9.16-3.33,18.3-4.92,27.46-.45,2.63-1.48,4.74-4.4,4.13s-3-3.08-2.56-5.6c2-10.61,4-21.22,5.8-31.86.43-2.46,1.92-3.71,3.81-4.87C575.25,432.93,580.67,429.53,586.87,425.68Z"/><path class="cls-2" d="M236.15,74.78c-7.78-2.27-14.29-4.13-20.79-6.07-2.56-.76-5.61-1.48-4.42-5.19,1.08-3.36,3.69-2.42,6.2-1.66q13.34,4,26.72,7.89c2,.57,3.93,1,4.23,3.51s-1.6,3.43-3.29,4.48c-5.78,3.59-11.41,7.46-17.4,10.67-4.1,2.19-5.85,5.15-6.49,9.63-1.2,8.37-3,16.67-4.47,25-.47,2.54-1,5.43-4.39,4.75-3.56-.71-3.05-3.57-2.51-6.4,1.89-9.78,3.77-19.56,5.3-29.4a9,9,0,0,1,4.77-7C224.87,81.94,230,78.62,236.15,74.78Z"/><path class="cls-2" d="M236,425.66c-7.95-2.38-14.76-4.5-21.62-6.44-2.63-.74-4.36-2-3.48-4.88.83-2.73,3-2.62,5.31-1.94,9.38,2.79,18.75,5.6,28.14,8.34,1.86.55,3.5,1.16,3.71,3.42s-1.35,3.19-2.94,4.17c-6.36,3.94-12.58,8.09-19.08,11.77a9.32,9.32,0,0,0-4.94,7.35c-1.46,8.85-3.17,17.65-4.74,26.48-.46,2.59-1.08,5.36-4.42,4.68-3.17-.64-3-3.24-2.52-6,1.93-9.94,3.8-19.9,5.41-29.89a8.47,8.47,0,0,1,4.4-6.68C224.66,432.9,229.9,429.49,236,425.66Z"/><path class="cls-2" d="M586.92,74.78c-7.89-2.32-14.55-4.26-21.21-6.24-2.47-.73-5.1-1.63-4-5s3.63-2.49,6.19-1.72c8.88,2.71,17.8,5.31,26.72,7.88,2,.57,4,1,4.32,3.47s-1.53,3.46-3.23,4.51c-6.34,3.94-12.6,8-19.09,11.73-2.95,1.67-4.1,3.88-4.63,7-1.49,9-3.29,18-4.84,27-.44,2.55-1.22,4.86-4.2,4.38-3.31-.53-3.23-3.23-2.74-5.88,1.91-10.28,3.9-20.55,5.65-30.86a7.2,7.2,0,0,1,3.69-5.48C575.09,82.27,580.5,78.8,586.92,74.78Z"/><path class="cls-2" d="M452.14,554.34c.19,2.33-.9,3.44-1.81,4.61Q434.7,579.08,419,599.17c-1.47,1.89-3.07,4-5.73,2.12-2.83-2-1.58-4.27.08-6.41,9.62-12.35,19.15-24.78,28.91-37,2-2.55,2.22-4.6,1.11-7.57-3.72-10-7.06-20.06-10.65-30.07-.94-2.61-1.51-5.11,1.77-6.13,3-.93,4,1.33,4.84,3.72,4,11.44,8.11,22.86,12.15,34.29C451.85,553,452.05,554,452.14,554.34Z"/><path class="cls-2" d="M101.38,554.51c.07,2-.91,3.16-1.83,4.35Q83.92,578.93,68.31,599c-1.56,2-3.24,4.36-6.07,2.08s-1.12-4.33.52-6.43c9.62-12.32,19.12-24.73,28.86-36.95a6.44,6.44,0,0,0,1.15-7.13c-3.74-10.1-7.22-20.3-10.91-30.43-.88-2.42-1.42-4.76,1.38-5.93,3.15-1.32,4.43,1,5.34,3.54q6,17.13,12.08,34.24C101,552.94,101.21,553.92,101.38,554.51Z"/><path class="cls-2" d="M452,203a5.43,5.43,0,0,1-1.47,4.87q-15.8,20.29-31.6,40.6c-1.14,1.46-2.3,2.95-4.48,2.57-3.06-.54-3.53-3.74-.93-7.1,9.16-11.86,18.22-23.81,27.67-35.43,2.87-3.53,3.39-6.45,1.75-10.64-3.75-9.59-6.93-19.4-10.45-29.08-.86-2.38-.77-4.43,1.69-5.44s4,.5,4.86,2.85q6.33,17.85,12.69,35.68A4.66,4.66,0,0,1,452,203Z"/><path class="cls-2" d="M101.34,203.49a5.68,5.68,0,0,1-1.62,4.35L68.46,248c-1.55,2-3.22,4.44-6,2.4-3.1-2.23-1.22-4.57.5-6.77,9.62-12.32,19.15-24.7,28.85-36.95A6.06,6.06,0,0,0,92.85,200c-3.76-10.1-7.24-20.31-10.92-30.44-.93-2.56-1.61-5.1,1.55-6.26s4.32,1.48,5.17,3.9q6,16.88,11.92,33.77C100.9,201.87,101.14,202.84,101.34,203.49Z"/><path class="cls-2" d="M202.6,587.71c-3.83-2.58-7.66-5.17-11.52-7.73-2.19-1.45-4.39-3.05-2.38-5.94,1.78-2.56,4-1.47,6.09-.08,7.31,4.91,14.62,9.84,22,14.7,1.71,1.12,2.79,2.47,2.16,4.53s-2.4,2.58-4.36,2.58H191.34c6.87,4.66,12.46,8.42,18,12.23,2.07,1.41,4.63,2.89,2.68,5.9-2.12,3.29-4.56,1.38-6.79-.13q-13-8.81-26-17.63c-1.83-1.23-3.81-2.41-2.89-5.1.83-2.39,2.95-2.32,5-2.32,6.95,0,13.9,0,20.85,0Z"/><path class="cls-2" d="M543.53,596.67q8.34,5.67,16.68,11.33c2.16,1.46,4.48,3,2.65,6s-4.19,1.55-6.39,0q-13.19-9-26.41-17.86c-1.85-1.25-3.74-2.48-2.86-5.13.81-2.42,3-2.29,5-2.29a168.6,168.6,0,0,0,21.3-.92c-3.85-2.61-7.68-5.26-11.56-7.82-2.25-1.48-4.28-3.21-2.34-6,1.75-2.51,4-1.41,6.11,0q10.74,7.23,21.53,14.4c1.75,1.16,3.38,2.46,2.58,4.81s-2.75,2.59-4.88,2.58c-7.06,0-14.11,0-21.17,0Z"/><path class="cls-2" d="M553.51,237c-3.79-2.57-7.56-5.18-11.39-7.69-2.2-1.45-4.49-3.06-2.7-5.93s4.28-1.57,6.47-.1L567,237.42c1.69,1.13,3.54,2.28,2.88,4.69-.7,2.58-2.86,2.85-5.17,2.83-7-.05-14,0-22.54,0,6.18,4.2,11.25,7.63,16.31,11.08,1.23.84,2.5,1.64,3.64,2.59a3.3,3.3,0,0,1,.55,4.88,3,3,0,0,1-4.42.78q-14.88-10-29.73-20.08a3.21,3.21,0,0,1-1.33-3.94c.64-1.82,2.1-2.37,4-2.36,7.31,0,14.63,0,22,0Z"/><path class="cls-2" d="M202.64,236.93c-3.84-2.6-7.67-5.22-11.53-7.79-2.19-1.46-4.43-3-2.42-5.94,1.77-2.54,4-1.48,6.11-.08,7.17,4.81,14.33,9.64,21.53,14.41,1.78,1.17,3.34,2.46,2.59,4.8s-2.7,2.61-4.84,2.6c-7.1-.05-14.2,0-22.76,0,6.84,4.64,12.52,8.48,18.19,12.34,2.12,1.45,4.47,3.06,2.46,6s-4.27,1.35-6.44-.13q-13.18-9-26.42-17.87c-1.71-1.16-3.53-2.34-2.89-4.71.71-2.6,3-2.68,5.26-2.66,6.94.06,13.88,0,20.82,0Z"/><path class="cls-2" d="M356.22,403.87c-3.25-.7-7.83-1.55-12.33-2.69-3.37-.86-5.13-.28-6.43,3.46-5.9,17.08-12.21,34-18.37,51-.28.78-.61,1.54-.85,2.33-.76,2.41-1.92,4.58-4.89,3.51s-2.69-3.28-1.75-5.79c3.17-8.55,6.23-17.14,9.32-25.71,3.89-10.76,7.95-21.46,11.57-32.31,1.41-4.21,3.55-5.49,7.76-4.47,6,1.45,12,2.57,18,3.82,2.18.46,3.86,1.58,3.58,4S359.88,404.34,356.22,403.87Z"/><path class="cls-2" d="M534.25,269.44a18.29,18.29,0,1,1-18-18.55A18.09,18.09,0,0,1,534.25,269.44Zm-7.06,0a11.2,11.2,0,1,0-11.17,11A11.09,11.09,0,0,0,527.19,269.4Z"/><path class="cls-2" d="M356.76,53.1c-3.48-.72-8.11-1.39-12.56-2.68-3.76-1.09-5.48-.28-6.83,3.6-6,17.39-12.36,34.66-18.65,52-.6,1.66-.9,3.62-2.75,4.56a3.1,3.1,0,0,1-3.7-.45c-1.68-1.44-1.43-3.12-.76-5,4.31-11.84,8.55-23.71,12.83-35.56,2.87-7.95,5.82-15.87,8.62-23.85,1-2.74,2.45-4.26,5.51-3.63,6.66,1.38,13.33,2.72,20,4.15,2.15.46,3.76,1.72,3.4,4.15C361.54,52.48,360,53.38,356.76,53.1Z"/><path class="cls-2" d="M146.84,620.11a18.35,18.35,0,0,1,36.69-.13,18.35,18.35,0,0,1-36.69.13Zm18.21,11.12a11.21,11.21,0,1,0-11.14-11A11,11,0,0,0,165.05,631.23Z"/><path class="cls-2" d="M271.83,81.78A18.29,18.29,0,1,1,290,100.32,18.05,18.05,0,0,1,271.83,81.78Zm29.49.32a11.22,11.22,0,1,0-11.57,11.14A11,11,0,0,0,301.32,82.1Z"/><path class="cls-2" d="M165,250.89a18.35,18.35,0,1,1-18.15,18.42A18.26,18.26,0,0,1,165,250.89Zm-11.09,18.22A11.21,11.21,0,1,0,165.46,258,11.18,11.18,0,0,0,153.93,269.11Z"/><path class="cls-2" d="M534.25,620a18.27,18.27,0,1,1-18.42-18.26A18.08,18.08,0,0,1,534.25,620Zm-18.19-11.18a11.21,11.21,0,1,0,11.13,11A11.05,11.05,0,0,0,516.06,608.83Z"/><path class="cls-2" d="M659.2,82a18.28,18.28,0,1,1-18.46-18.19A18.08,18.08,0,0,1,659.2,82Zm-7.05.33a11.21,11.21,0,1,0-11.2,11A11.05,11.05,0,0,0,652.15,82.29Z"/><path class="cls-2" d="M289.93,451.15a18.3,18.3,0,1,1,18.46-18.23A18.06,18.06,0,0,1,289.93,451.15ZM301.31,433A11.21,11.21,0,1,0,289.7,444.1,11.06,11.06,0,0,0,301.31,433Z"/><path class="cls-2" d="M659.21,432.85a18.28,18.28,0,1,1-18.43-18.3A18.06,18.06,0,0,1,659.21,432.85Zm-7.06,0a11.2,11.2,0,1,0-10.92,11.24A11.09,11.09,0,0,0,652.15,432.86Z"/><path class="cls-2" d="M529.13,660.28c-5-.68-9.91-1.25-14.83-2.07-2.73-.46-4.61.11-6.33,2.49-4.29,5.93-8.88,11.64-13.33,17.46-1.6,2.08-3.32,4.22-6.1,2s-1-4.41.59-6.44c5.18-6.72,10.46-13.37,15.51-20.19,1.7-2.3,3.52-3.19,6.34-2.74,4.43.72,9,.85,13.35,1.8,3.47.75,5.49-.33,7.5-3.06,4.74-6.42,9.82-12.6,14.68-18.94,1.67-2.18,3.58-4,6.18-2s1,4.4-.62,6.46c-6,7.58-12,15.15-17.86,22.8C532.85,659.62,531.38,660.59,529.13,660.28Z"/><path class="cls-2" d="M178.6,660.28c-5.24-.69-9.56-1.06-13.8-1.87-3.58-.68-6.1-.26-8.38,3.15-3.88,5.8-8.42,11.15-12.67,16.7-1.61,2.11-3.4,4.11-6.13,1.85-2.44-2-1.06-4.12.45-6.08,5.39-7,10.8-13.94,16.1-21a5.29,5.29,0,0,1,5.58-2.3c4.27.66,8.67.69,12.85,1.7,4,.95,6.38-.05,8.75-3.36,4.45-6.21,9.4-12.08,14.09-18.12,1.71-2.2,3.58-4.63,6.47-2.29,2.65,2.14.82,4.44-.78,6.48-5.86,7.46-11.75,14.89-17.52,22.42C182,659.65,180.27,660.72,178.6,660.28Z"/><path class="cls-2" d="M509.76,299.72c6,.82,10.76,1.38,15.51,2.17a5.41,5.41,0,0,0,5.91-2.42c5-6.66,10.23-13.12,15.36-19.67,1.61-2.07,3.37-4.21,6.12-2s1,4.4-.61,6.43c-5.86,7.46-11.78,14.88-17.52,22.42a5.94,5.94,0,0,1-6.4,2.61c-4.09-.68-8.33-.67-12.36-1.6s-6.35-.09-8.69,3.36c-3.91,5.78-8.47,11.11-12.68,16.68-1.58,2.09-3.4,3.53-5.82,1.68s-1.32-4,.25-6c5.41-7,10.81-13.93,16.09-21C506.52,300.18,508.38,299.37,509.76,299.72Z"/><path class="cls-2" d="M159,299.72c5.88.81,10.67,1.4,15.43,2.16a5.38,5.38,0,0,0,5.91-2.37c5-6.68,10.21-13.13,15.34-19.69,1.6-2.05,3.37-4.25,6.11-2.11s1.12,4.39-.51,6.47c-5.87,7.45-11.75,14.89-17.52,22.42a6,6,0,0,1-6.41,2.64c-4.26-.73-8.66-.73-12.85-1.7-3.6-.83-5.76,0-7.9,3-4.09,5.86-8.66,11.38-13,17.07-1.56,2.05-3.37,3.59-5.82,1.73s-1.36-4,.2-6q8.1-10.47,16.09-21C155.62,300.26,157.43,299.13,159,299.72Z"/><path class="cls-2" d="M260.19,326.12q26.49,3,53,6.11c3.64.42,4.9,2.47,3.78,5.93q-3.57,11.11-7.24,22.21c-.74,2.22-2,4-4.75,3.13s-2.7-3.09-2-5.36c1.62-5,3.05-10.17,5-15.08,1.46-3.62.14-4.36-3.14-4.72-15-1.66-30-3.51-45.05-5.21-2.79-.31-5.82-.5-5.46-4.16C254.7,325.65,257.59,325.73,260.19,326.12Z"/><path class="cls-2" d="M609.88,326c18.25,2.1,36.25,4.16,54.25,6.26,3.32.38,4.8,2.28,3.76,5.55-2.4,7.58-4.93,15.14-7.44,22.69-.76,2.29-2.14,4-4.79,2.92s-2.6-3-1.79-5.39c1.78-5.18,3.27-10.46,5.16-15.59,1-2.68.51-3.62-2.4-3.94-12.72-1.38-25.43-2.95-38.14-4.45-3-.35-5.94-.74-8.92-1-2.65-.23-4.77-1.23-4.38-4.18C605.54,326.24,607.68,325.58,609.88,326Z"/><path class="cls-2" d="M461.73,573.5c-4.21,5.74-7.74,10.54-11.26,15.35-1.45,2-3.07,3.93-5.71,2.14-2.91-2-1.56-4.19.05-6.36,5-6.81,10-13.66,15-20.5,1.19-1.63,2.29-3.48,4.7-3,2.7.54,2.89,3,3.25,5,1,6.05,2.19,12.1,2.86,18.2.33,3,1.77,4.74,4,6.38,5.36,3.93,10.58,8,15.9,12,2.06,1.53,3.67,3.3,1.87,5.78s-4,1.49-6-.07c-6.33-4.85-12.64-9.72-19.06-14.45a8.06,8.06,0,0,1-3.27-5.85C463.41,583.62,462.62,579.08,461.73,573.5Z"/><path class="cls-2" d="M110.9,222.72,99.69,237.94c-1.56,2.12-3.28,4.24-6.08,2-2.48-2-1.22-4.07.27-6.08,5.14-7,10.23-14,15.34-20.95,1.1-1.5,2.24-3.1,4.39-2.68,2.36.47,2.91,2.47,3.24,4.51,1,6.08,2.26,12.13,2.84,18.24.32,3.42,2,5.34,4.5,7.18,5.27,3.8,10.33,7.87,15.54,11.75,2.1,1.56,3.57,3.45,1.8,5.84s-4.08,1.34-6.09-.19c-6.35-4.85-12.64-9.78-19.1-14.48-2.32-1.69-2.83-4-3.22-6.43C112.43,232.42,111.76,228.15,110.9,222.72Z"/><path class="cls-2" d="M461.72,222.69c-4,5.51-7.54,10.3-11.07,15.06-1.51,2-3.12,4.46-6,2.3s-1.24-4.32.32-6.44c4.95-6.69,9.86-13.42,14.79-20.13,1.27-1.73,2.37-3.86,5.08-3.07s2.66,3.2,3,5.28c1.06,6.06,2.18,12.13,2.9,18.24a7.61,7.61,0,0,0,3.47,5.63c5.49,4.05,10.88,8.25,16.33,12.36,2,1.52,3.74,3.3,1.9,5.8s-4.07,1.45-6.09-.09c-6.36-4.85-12.66-9.77-19.11-14.49a8,8,0,0,1-3.19-5.9C463.38,232.7,462.6,228.17,461.72,222.69Z"/><path class="cls-2" d="M110.9,573.49c-4.21,5.73-7.74,10.52-11.25,15.33-1.58,2.18-3.42,4.1-6.11,1.92-2.43-2-1.06-4.11.41-6.1q7.68-10.42,15.31-20.9c1.1-1.5,2.23-3,4.41-2.59,2.39.5,2.86,2.52,3.19,4.53,1,6.06,2.18,12.1,2.86,18.2a8.84,8.84,0,0,0,4,6.88c5.41,3.85,10.58,8,15.93,12,2.13,1.57,3.56,3.4,1.9,5.81s-3.95,1.58-6,0c-6.45-5-12.89-9.94-19.45-14.76-2.14-1.57-2.6-3.72-3-6C112.43,583.35,111.76,578.92,110.9,573.49Z"/><path class="cls-2" d="M382.5,402.58c0,15.42,0,15.54-14.44,20.17-3.63,1.16-4.35,2.1-1.95,5.36,3.53,4.81,6.57,10,9.83,15,1.39,2.15,2.13,4.34-.54,6-2.46,1.54-4,0-5.29-2q-7-10.86-14.06-21.74c-2.11-3.27-1.55-5.55,2.35-6.8,4.42-1.41,8.74-3.17,13.22-4.34,2.94-.77,4-2.07,3.87-5.15-.24-6-.07-12-.06-17.95,0-2.64.23-5.32,3.79-5.15,3.24.15,3.27,2.74,3.28,5.14C382.52,394.94,382.5,398.76,382.5,402.58Z"/><path class="cls-2" d="M404.29,209.25c-5.06-1-10.14-1.82-15.18-2.92-2.68-.59-4.16-.52-4.48,2.94-.54,5.95-1.71,11.84-2.64,17.76-.23,1.48-.49,2.95-.77,4.42-.41,2.14-1.77,3.26-3.88,3-2.4-.37-3.32-2.08-3-4.39,1.42-9.37,2.91-18.73,4.32-28.11.48-3.15,2.23-4.26,5.25-3.68a25.85,25.85,0,0,1,3.41.74c12.61,4.41,24.27,2.12,35.62-4.39,2.51-1.45,6.69-5.21,8.8-.06,2,5-3.49,5.06-6.27,6.43-5.21,2.57-10.62,4.73-15.94,7.06C407.89,208.73,406.26,209.66,404.29,209.25Z"/><path class="cls-2" d="M363.76,73.41c4.11,6.37,7.79,12.08,11.49,17.79,1.46,2.25,3.48,4.69.38,6.9s-4.72-.62-6.16-2.83C365,88.46,360.64,81.61,356.2,74.8c-2.23-3.43-1.88-5.84,2.39-7.13,4-1.2,7.83-2.76,11.83-3.81,3.71-1,5.5-2.58,5.12-6.86-.49-5.61-.12-11.3-.11-17,0-2.49.38-4.94,3.52-5S382.5,37.5,382.5,40c0,7.65-.1,15.3.05,22.94.06,3.23-1.35,4.83-4.3,5.72C373.52,70.08,368.86,71.72,363.76,73.41Z"/><path class="cls-2" d="M406.05,560.42c-6.22-1.18-11.46-2.12-16.66-3.21-2.78-.57-4.49-.62-4.82,3.16-.58,6.61-1.79,13.17-2.86,19.74-.42,2.6-.73,5.81-4.61,5-3.41-.7-2.82-3.4-2.41-6,1.36-8.54,2.67-17.09,3.82-25.66.52-3.91,2.55-5.12,6.19-4.27a25.67,25.67,0,0,1,2.91.69c12.84,4.65,24.63,1.69,36-4.86a20,20,0,0,1,4.6-1.87,3,3,0,0,1,3.68,1.87c.65,1.41.75,3.32-.78,4C422.55,553.07,413.93,556.87,406.05,560.42Z"/><path class="cls-2" d="M23.74,228.69c1.27-8.27,2.74-17.46,4.09-26.67.51-3.5,2.49-4.41,5.64-3.72.81.18,1.64.32,2.43.58,12.9,4.42,25,2.5,36.47-4.57a29,29,0,0,1,4.12-1.76A3.17,3.17,0,0,1,81,194.28a3.22,3.22,0,0,1-1.64,4.62c-7.72,3.46-15.3,7.46-23.34,9.91-5.35,1.63-11.13-1.12-16.61-2.29-4.1-.88-5.48-.23-5.86,4.07-.59,6.61-1.85,13.16-2.87,19.73-.36,2.3-1.27,4.39-4.05,4.1S23.33,232.07,23.74,228.69Z"/><path class="cls-2" d="M528.88,96q0,14.22,0,28.44c0,2.76.07,5.76-3.79,5.66-3.67-.09-3.24-3.09-3.24-5.56,0-17.13-.16-34.27.1-51.4.07-4.27-1.21-5.5-5.27-5a93.4,93.4,0,0,1-9.47.07c-2.39,0-4-1.2-4-3.5s1.62-3.55,4-3.56c5.82,0,11.64,0,17.46,0,3.58,0,4.27,2.4,4.25,5.42C528.84,76.32,528.88,86.13,528.88,96Z"/><path class="cls-2" d="M528.88,446.48q0,14.22,0,28.44c0,2.71.24,5.87-3.49,6-4,.15-3.54-3.12-3.54-5.77,0-17.3-.12-34.6.08-51.9,0-3.55-1-4.65-4.43-4.33-3.3.3-6.65,0-10,.07-2.57,0-4.4-1.12-4.28-3.7s2.14-3.4,4.63-3.36c5.32.08,10.65.11,16,0,3.66-.09,5.08,1.59,5,5.12C528.83,426.85,528.88,436.66,528.88,446.48Z"/><path class="cls-2" d="M178,95.61c0,9.15.06,18.3,0,27.44,0,2.78,1.15,6.8-3.38,6.94S171,126.08,171,123.3c-.07-17-.13-33.92,0-50.88,0-3.43-.76-4.74-4.34-4.4s-7,.06-10.47.06c-2.41,0-3.89-1.3-3.82-3.62a3.39,3.39,0,0,1,3.64-3.37c6-.06,12-.11,18,0,3.25.05,4,2.22,4,5.1C177.94,76,178,85.8,178,95.61Z"/><path class="cls-2" d="M32.37,549c6.08,1.11,12.32,2.07,18.47,3.43a9.94,9.94,0,0,0,6.7-.71c5.89-2.66,11.85-5.16,17.75-7.82,2.39-1.07,4.62-1.5,5.77,1.44,1,2.52-.48,3.95-2.78,4.93-7,3-14,6.09-21,9.16-4,1.79-7.88-.19-11.7-.84-11.1-1.92-11.08-2.09-12.85,9-.68,4.27-1.25,8.55-2,12.81-.42,2.51-.88,5.3-4.41,4.74-3.17-.51-3-2.94-2.62-5.42,1.38-8.86,2.75-17.73,4-26.61C28.17,550.39,29.27,548.77,32.37,549Z"/><path class="cls-2" d="M178,446.48c0,9.31,0,18.62,0,27.93,0,2.75.71,6.36-3.41,6.49s-3.59-3.49-3.59-6.25c0-17.12-.12-34.25.07-51.37,0-3.48-.79-4.72-4.34-4.36-3.13.33-6.31,0-9.47.09-2.67.07-4.87-.73-4.8-3.69.07-2.63,2.12-3.42,4.61-3.38,5.32.08,10.64.11,16,0,3.65-.08,5.05,1.57,5,5.12C177.92,426.86,178,436.67,178,446.48Z"/><path class="cls-2" d="M12.93,73.41C17,79.78,20.83,85.63,24.6,91.49c1.49,2.31,3.16,4.84-.15,6.81-3.09,1.83-4.41-.86-5.76-3q-6.53-10-13-20.09c-2.89-4.52-2.28-6.12,2.87-7.93.31-.11.64-.18.95-.29,5-1.86,11.9-1.75,14.44-5.7,2.37-3.67.67-10,.74-15.11,0-2.5,0-5,0-7.49,0-2.09,1-3.55,3.2-3.69a3.21,3.21,0,0,1,3.68,3.26c.16,8.82.14,17.64,0,26.46,0,2.39-2.09,3.15-4.05,3.79C22.86,70.1,18.14,71.69,12.93,73.41Z"/><path class="cls-2" d="M13,424.3c4,6.22,7.89,12.2,11.75,18.2,1.4,2.17,2.87,4.57,0,6.49s-4.46-.44-5.87-2.61c-4.41-6.83-8.89-13.63-13.25-20.49-2.73-4.28-2.09-5.95,2.77-7.63a128.62,128.62,0,0,1,12.29-4c3.48-.81,4.31-2.56,4.14-5.91-.29-5.8-.08-11.63-.08-17.46,0-2.45.19-4.95,3.46-4.91s3.59,2.43,3.59,4.93c0,7.65,0,15.3,0,23,0,2.89-1,4.58-3.95,5.45C22.9,420.75,18.09,422.56,13,424.3Z"/><path class="cls-2" d="M18.94,167.61c-7.71,0-7.72,0-4.75,7,1.42,3.35,2.81,6.72,4.29,10,1,2.16.68,4.12-1.45,5.1-2.36,1.09-4.09-.05-5.1-2.45-2.93-7-6-14-8.86-21.07-1.51-3.8-.18-5.52,4.09-5.71,3-.13,6-.11,9,0,2.56.08,2.75-1,1.72-2.94-2.93-5.58-5.78-11.2-8.71-16.77-1.27-2.42-2.11-4.86,1-6.34,2.9-1.39,4.17.89,5.28,3q5.71,11,11.41,22.09c3.17,6.17,2,8-4.91,8Z"/><path class="cls-2" d="M370.07,160.52c-3.41-6.71-6.46-12.72-9.52-18.73-1.29-2.51-3.31-5.36.37-7.24,3.44-1.77,4.56,1.46,5.75,3.77,3.9,7.5,7.79,15,11.57,22.56,2.27,4.54,1.06,6.53-3.95,6.71-2.82.1-5.65.13-8.47,0s-3.64.59-2.36,3.37c2,4.36,3.68,8.88,5.66,13.25,1,2.29,1.18,4.41-1.22,5.55-2.67,1.26-4.25-.29-5.29-2.84-2.83-6.9-5.88-13.7-8.68-20.61-1.54-3.81-.29-5.58,3.93-5.74C361.64,160.4,365.43,160.52,370.07,160.52Z"/><path class="cls-2" d="M370.09,511.26c-3.64-7.07-6.8-13.24-10-19.39-1.22-2.35-2.34-4.91.68-6.47s4.44.85,5.63,3.21c3.91,7.69,7.92,15.34,11.77,23.06,2.31,4.64,1.17,6.5-3.9,6.64a78.66,78.66,0,0,1-8,0c-3.2-.23-4.3.48-2.69,3.79,2,4,3.5,8.24,5.29,12.35,1.08,2.47,1.84,5-1.32,6.3s-4.34-1.36-5.34-3.71c-2.67-6.26-5.35-12.51-7.95-18.79-2.13-5.12-.88-6.88,4.89-7C362.5,511.22,365.82,511.26,370.09,511.26Z"/><path class="cls-2" d="M19.27,511.27,9.32,492c-1.17-2.29-2.54-4.81.51-6.51s4.48.67,5.68,3c4,7.69,8,15.35,11.84,23.07,2.44,4.86,1.27,6.48-4.24,6.8-3.71.21-8.87-1.87-10.71,1-1.48,2.32,2.18,6.5,3.48,9.88.83,2.17,1.78,4.3,2.69,6.44s.41,4-1.74,5a3.22,3.22,0,0,1-4.55-1.86C9,531.39,5.8,523.92,2.87,516.33c-1.32-3.41.84-5,4.05-5C10.75,511.19,14.57,511.27,19.27,511.27Z"/><path class="cls-2" d="M58.12,450.81c-1,6.41-2,12.8-2.84,19.23-.36,2.77-1.57,4.1-4.43,4.25-15,.78-29.88,1.65-44.82,2.5-2.46.14-4.56-.65-4.75-3.24-.23-3,2-3.72,4.65-3.85,12.62-.62,25.24-1.39,37.86-1.91,3.54-.14,5.38-1,5.46-5,.09-4.28,1.19-8.54,1.75-12.82.32-2.5,1-4.93,4-4.74C58.4,445.42,58.42,448.15,58.12,450.81Z"/><path class="cls-2" d="M378.65,475.56c-7.13.4-14.27.79-21.4,1.21-2.58.16-4.93-.36-5.12-3.34s2.22-3.6,4.75-3.73c12.62-.63,25.22-1.41,37.84-1.91,3.64-.14,5.25-1.28,5.42-5.16.19-4.45,1.24-8.87,1.82-13.31.32-2.43,1.33-4.35,4-4.11s3.41,2.31,3.07,4.77c-1,6.91-2,13.8-2.95,20.71-.37,2.72-2.08,3.48-4.51,3.6C393.91,474.67,386.28,475.13,378.65,475.56Z"/><path class="cls-2" d="M378.33,124.71c-7,.4-13.95.77-20.91,1.2-2.53.16-5-.14-5.26-3.15-.29-3.43,2.34-3.79,5-3.92,12.45-.62,24.89-1.43,37.35-1.89,3.6-.13,5.4-.94,5.57-5,.21-4.63,1.26-9.21,1.87-13.82.31-2.27,1.44-4,3.76-3.82,2.61.16,3.62,2.06,3.26,4.61q-1.5,10.61-3,21.21c-.44,3.1-2.88,3.31-5.24,3.44C393.28,124,385.8,124.35,378.33,124.71Z"/><path class="cls-2" d="M8.28,125.92c-1.16,0-2.33,0-3.49,0a3.41,3.41,0,0,1-3.56-3.43A3.32,3.32,0,0,1,4.66,119c5-.32,10-.64,15-.9,8.47-.43,16.94-.89,25.42-1.17,2.59-.09,3.85-.76,4.07-3.64.37-4.79,1.3-9.54,1.91-14.32.33-2.55,1.17-4.86,4.12-4.55s3.32,2.75,2.95,5.31c-.91,6.25-2,12.48-2.62,18.76-.39,3.78-2.24,5.07-5.81,5.22-13.79.6-27.58,1.36-41.37,2.06Z"/><path class="cls-2" d="M152.69,595.77A25.17,25.17,0,0,1,142.18,593c-2.17-1.19-5-2.3-3.61-5.5,1.53-3.52,4-2.15,6.63-.89,11.34,5.49,24-1.39,25.22-13.74a16.61,16.61,0,0,0-6.6-15.35c-1.92-1.54-3.9-3.1-1.93-5.73,2.12-2.84,4.35-1.31,6.44.26,7.94,6,11.27,17.25,8,26.93A24.71,24.71,0,0,1,152.69,595.77Z"/><path class="cls-2" d="M152.05,244.91a24.4,24.4,0,0,1-11.34-3.53c-1.82-1.11-3.29-2.53-2.1-4.87s3.27-2.53,5.47-1.31c4.23,2.36,8.58,3.35,13.41,2,6.52-1.82,10.77-5.95,12.42-12.39,1.71-6.63,0-12.51-5.09-17.28-.6-.57-1.32-1-2-1.55-1.76-1.46-2.5-3.2-.88-5.17s3.42-1.47,5.33-.32c7.84,4.72,12.18,16.78,9.49,26.49C173.89,237.45,163.93,245,152.05,244.91Z"/><path class="cls-2" d="M395.4,382.92c-2.83.25-4-1.25-4.71-3.6q-6.51-20.88-13.19-41.7c-.81-2.54-.24-4.45,2.19-5.22,2.62-.82,3.86,1,4.59,3.31,3.53,11.22,7.35,22.36,10.55,33.67,1.34,4.69,2.92,6.83,8.1,4.95,3.23-1.17,6.83-1.31,10.25-2,2.46-.47,4.41.09,4.89,2.79.42,2.4-.92,3.65-3.28,4.08C408.26,380.42,401.75,381.7,395.4,382.92Z"/><path class="cls-2" d="M527.22,362.92c-1.26-6.48-2.3-12-3.42-17.44-.3-1.49-.75-3,.23-4.32,3.7-5.11,7.41-10.22,11.23-15.24a3.27,3.27,0,0,1,4.88-.63c1.73,1.3,1.81,3.19.62,4.89-2.48,3.53-5,7.05-7.71,10.4a7.65,7.65,0,0,0-1.66,7.3c1.61,6.78,2.84,13.64,4.27,20.46.43,2,.76,4.08-1.34,5.35-1.8,1.1-3.46.29-5.06-.81q-8-5.5-16-10.92c-2.22-1.47-3.57-3.33-1.86-5.77,1.58-2.25,3.74-1.53,5.7-.19Z"/><path class="cls-2" d="M528.41,571.11c.14,18.25-19.15,30.25-35.33,21.95-2.36-1.22-5.32-2.48-3.52-5.91,1.59-3,3.95-1.8,6.38-.58,8.24,4.12,17.55,1.7,22.5-5.65s3.53-17.08-3.74-23.3c-2.05-1.76-4-3.43-1.7-6.12,2.1-2.42,4.22-.94,6.1.56A23.94,23.94,0,0,1,528.41,571.11Z"/><path class="cls-2" d="M44.19,383c-2.93,0-3.77-1.83-4.47-4.06q-6.34-20.41-12.88-40.78c-.83-2.58-.85-4.79,1.95-5.71,3-1,4.11,1.34,4.85,3.67,3.76,11.85,7.64,23.66,11.13,35.59.95,3.26,2.44,3.74,5.3,3.1,3.89-.87,7.84-1.43,11.73-2.29,2.59-.57,4.81-.43,5.42,2.59.54,2.73-1.22,3.81-3.68,4.25C57,380.5,50.5,381.77,44.19,383Z"/><path class="cls-2" d="M176.4,362.88c-1.2-5.89-2.08-10.74-3.21-15.52-.81-3.48-.42-6.4,2-9.25,3-3.53,5.66-7.39,8.39-11.16,1.59-2.19,3.56-3.36,5.87-1.5,2.13,1.71,1.58,4.19-.25,5.65-12.77,10.17-7.43,22.79-4.94,35a26.59,26.59,0,0,1,.76,3.9c.14,3.6-2.46,5.41-5.52,3.47-6.18-3.9-12.13-8.18-18.14-12.35a3.26,3.26,0,0,1-1-4.81c1.35-2.08,3.33-1.94,5.23-.69C168.92,357.83,172.18,360.05,176.4,362.88Z"/><path class="cls-2" d="M528.44,220.26c.07,18.28-19.13,30.22-35.32,22-2.39-1.22-5.32-2.47-3.55-5.88,1.57-3.05,4-1.76,6.39-.59,8.51,4.14,18,1.52,22.78-6.08,4.67-7.43,3.08-16.82-4-22.86-2-1.74-4.12-3.48-1.75-6.11s4.5-.75,6.51.84A24.26,24.26,0,0,1,528.44,220.26Z"/><path class="cls-2" d="M134.1,64.7a24.82,24.82,0,0,1,22.44-24.51c2.51-.21,4.94,0,5.39,3s-1.76,3.67-4.36,4.06c-10.13,1.49-16.53,8.42-16.42,17.52S147.62,80.52,157.92,82c2.5.34,4.3,1.2,4,3.93S159.57,89,157.19,89C145.07,89,134.13,77.47,134.1,64.7Z"/><path class="cls-2" d="M134.09,415.5c0-12.41,9.73-23.26,22-24.39,2.56-.24,5.41-.42,5.87,3s-2.14,3.76-4.86,4.1c-9.26,1.18-15.73,8.2-15.92,17s6.36,16.33,15.77,17.62c2.63.37,5.43.46,5,4-.46,3.71-3.57,3.38-6.25,3A24.7,24.7,0,0,1,134.09,415.5Z"/><path class="cls-2" d="M508.31,227c-7.63-4.38-16.26-7.86-23.6-13.59-1.37-1.07-.48-2.76.3-4.1q10.11-17.43,20.22-34.84c1.19-2.05,2.89-3.47,5.3-1.93s1.93,3.56.71,5.65c-5.5,9.46-10.78,19.06-16.57,28.33-2.13,3.41-1.31,4.64,1.85,6.17,4.61,2.24,9,4.88,13.55,7.34a3.55,3.55,0,0,1,2,4.14C511.71,225.87,510.46,226.61,508.31,227Z"/><path class="cls-2" d="M485,415.54a24.62,24.62,0,0,1,21.89-24.43c2.61-.25,5.45-.31,5.9,3s-2.16,3.75-4.89,4.09c-9.25,1.15-15.71,8.2-15.85,17-.15,9,6.25,16.32,15.72,17.62,2.65.36,5.45.55,5,4-.45,3.61-3.55,3.4-6.28,3.06A24.6,24.6,0,0,1,485,415.54Z"/><path class="cls-2" d="M157.77,227.05c-1.06-.48-2.14-.9-3.15-1.45-6-3.24-11.89-6.58-17.89-9.75-3.58-1.89-4.08-4.09-2-7.62,6.48-10.8,12.71-21.75,19-32.65,1.29-2.24,2.67-4.79,5.68-3.09,3.29,1.86,1.65,4.51.29,6.86-5.24,9-10.28,18.19-15.83,27-2.23,3.54-1.24,4.88,2,6.45,4.47,2.18,8.74,4.75,13.11,7.11,1.85,1,2.65,2.42,2.13,4.49C160.71,226.15,159.35,226.66,157.77,227.05Z"/><path class="cls-2" d="M508.71,522.91c3.26-.06,4.36,2.93,2.23,6.64-5.21,9.09-10.31,18.25-15.9,27.1-2.4,3.8-1.89,5.5,2.08,7.26,4.24,1.89,8.18,4.43,12.3,6.6,2.19,1.16,3.55,2.81,2.38,5.21s-3.27,2.44-5.51,1.2c-6.53-3.64-13.09-7.23-19.64-10.84-2.8-1.54-3-3.61-1.49-6.25q9.94-17,19.82-34.05C505.83,524.32,506.7,522.88,508.71,522.91Z"/><path class="cls-2" d="M376.17,363.74c.06,14.5-12,25.83-26.09,24.56-2.56-.24-4.94-.86-4.72-3.85s2.52-3.31,5.17-3.29c10,.09,17.32-5.78,18.46-14.54,1.23-9.44-3.84-16.8-13.72-19.58-2.37-.67-4.24-1.66-3.76-4.29.56-3,3-3.09,5.51-2.66C367.69,341.94,376.12,352.35,376.17,363.74Z"/><path class="cls-2" d="M157.49,577.8c-.94-.45-2-.92-3-1.47-5.84-3.18-11.62-6.45-17.51-9.54-3.42-1.8-4.54-3.79-2.31-7.52,6.59-11,12.91-22.1,19.3-33.19,1.26-2.19,2.79-4.2,5.46-2.8,3,1.58,2,4.08.64,6.42-5.36,9.19-10.56,18.47-16.1,27.55-1.84,3-2.14,4.58,1.58,6.23,4.69,2.07,9.06,4.89,13.57,7.37,1.86,1,2.62,2.5,2,4.55C160.57,577.07,159.23,577.61,157.49,577.8Z"/><path class="cls-2" d="M485,64.43a24.6,24.6,0,0,1,22.13-24.2c2.69-.26,5.37,0,5.69,3.25.29,3.06-2.15,3.46-4.68,3.83-10,1.48-16.32,8.52-16.11,17.75.21,9,6.62,15.63,16.48,16.87,2.46.31,4.46,1,4.33,3.71-.15,3-2.48,3.45-5.08,3.37C495.49,88.65,484.93,77.29,485,64.43Z"/><path class="cls-2" d="M79.61,410.07c-1.39,10.87-2.74,21.43-4.1,32-.06.5-.2,1-.26,1.48-.4,3.8-2.21,8.28-.8,11.22,1.5,3.13,6.8,2.13,10.38,3.13,2.4.66,4.21,1.69,3.71,4.32s-2.64,3.19-5.05,2.69C78.93,464,74.38,463,69.82,462c-2.57-.52-3.73-2.09-3.41-4.63q3-23.52,6-47c.31-2.35,1.38-4.28,4.15-3.92A3.38,3.38,0,0,1,79.61,410.07Z"/><path class="cls-2" d="M84.4,114.21c-5-1.06-10.08-2.06-15.1-3.21-2.63-.6-3.13-2.53-2.81-5,2-15.17,3.84-30.34,5.79-45.5.33-2.53.83-5.36,4.35-4.78s3,3.3,2.62,5.89c-1.69,12.85-3.21,25.73-5,38.56-.48,3.36-.1,5.34,3.78,5.61a50.4,50.4,0,0,1,7.34,1.37c2.19.5,3.68,1.88,3.2,4.24C88.14,113.43,86.59,114.41,84.4,114.21Z"/><path class="cls-2" d="M430.29,411.75c-1.67,12.68-3.13,25.39-5.11,38-.71,4.53.22,6.76,5,7.1a41.11,41.11,0,0,1,6.35,1.22,3.33,3.33,0,0,1,2.84,4,3.11,3.11,0,0,1-3.92,2.87c-5.22-.94-10.45-1.92-15.59-3.21-2.53-.63-2.84-2.83-2.52-5.25,2-15.15,3.9-30.31,5.84-45.47.32-2.5,1.11-4.9,4.09-4.61S430.62,409.17,430.29,411.75Z"/><path class="cls-2" d="M430.29,61c-1.67,12.67-3.16,25.37-5.1,38-.68,4.45,0,6.87,5,7.06a31.71,31.71,0,0,1,6.34,1.23c2,.52,3.17,1.89,2.84,4a3.1,3.1,0,0,1-4,2.8c-5.22-.94-10.44-1.94-15.59-3.19-2.28-.55-2.82-2.51-2.53-4.76q3-23,5.88-45.95c.32-2.48,1.05-4.83,4.13-4.51S430.52,58.44,430.29,61Z"/><path class="cls-2" d="M567.37,532.76c-4,0-8,0-12,0-2.37,0-4.41-.73-4.46-3.55s2-3.48,4.39-3.48c5.48,0,11-.16,16.45,0,3.37.12,4.75-.31,3.76-4.33-2-8.21-3.34-16.58-5.07-24.87-.56-2.66-.89-5.28,2.42-6s4,2,4.49,4.57q3.15,15.87,6.43,31.71c.85,4.13-.83,6-5,5.9C575,532.71,571.19,532.76,567.37,532.76Z"/><path class="cls-2" d="M213.91,525.72c3.36-.45,8.37,1.66,10.57-.9,2-2.32-.72-6.88-1.38-10.44-1.14-6.21-2.33-12.42-3.63-18.61-.52-2.46-.22-4.46,2.42-5.14s3.92,1,4.41,3.44c2.21,11.09,4.47,22.17,6.67,33.26.72,3.58-.79,5.43-4.47,5.43q-12,0-24,0c-2.39,0-4.43-.81-4.45-3.6s2.08-3.44,4.47-3.44Z"/><path class="cls-2" d="M464.6,531c4.17,6.83,7.93,13.06,11.77,19.24,1.4,2.25,2.81,4.62-.16,6.42s-4.49-.37-5.89-2.69c-4.89-8.1-9.86-16.15-14.8-24.22-.94-1.55-2.18-3.05-1-5,1.27-2.17,3.33-1.91,5.31-1.63,9.05,1.31,18.08,2.66,27.12,4,2.35.35,4.34,1.21,4.1,4-.28,3.27-2.75,3.31-5.2,3C479,533.08,472.15,532.07,464.6,531Z"/><path class="cls-2" d="M114.82,181.17c2.92,6.54,7.28,12.22,10.83,18.38,1.22,2.12,2.54,4.38-.07,6.1s-4.49.08-6-2.37c-5-8.25-10-16.42-15.07-24.63-1-1.56-2-3.07-.71-5s3.06-1.74,4.9-1.47q13.56,2,27.11,4c2.48.37,4.75,1.21,4.3,4.33-.42,2.88-2.66,3-5,2.68l-19.74-2.62c-.4-.37-.82-.54-1.19,0C114.21,180.61,114.62,181,114.82,181.17Z"/><path class="cls-2" d="M113.75,531c4.1,6.71,7.88,12.93,11.69,19.12,1.34,2.19,3,4.63,0,6.49-3.15,2-4.74-.6-6.18-3-4.75-7.79-9.56-15.56-14.28-23.37-1.08-1.77-2.79-3.5-1.1-5.86,1.47-2,3.55-1.53,5.47-1.25,8.88,1.26,17.74,2.62,26.62,3.92,2.33.35,4.35,1.12,4.17,3.93-.22,3.29-2.64,3.41-5.12,3.07C128.16,533.08,121.28,532.06,113.75,531Z"/><path class="cls-2" d="M216.69,181.91c-4.16,0-8.32,0-12.47,0-2.48,0-4.3-1.09-4.17-3.82.11-2.48,1.89-3.24,4.16-3.23,5.66,0,11.32-.26,16.95.09,4,.25,4.23-1.28,3.5-4.57-1.82-8.26-3.28-16.6-5-24.88-.54-2.52-.79-4.85,2.2-5.63,3.43-.89,4.21,1.7,4.73,4.29,2.12,10.57,4.3,21.14,6.32,31.73.89,4.65-.32,5.93-5.21,6C224,182,220.34,181.9,216.69,181.91Z"/><path class="cls-2" d="M567.18,181.92c-3.66,0-7.32,0-11,0-2.69,0-5.28-.29-5.24-3.75,0-3.26,2.57-3.35,5-3.34,5.66,0,11.32-.13,17,.09,2.89.12,3.34-.85,2.79-3.44-1.85-8.6-3.49-17.25-5.29-25.87-.55-2.65-.88-5.22,2.56-5.84,3.08-.56,3.81,1.68,4.31,4.21,2.11,10.76,4.33,21.49,6.51,32.23.77,3.79-.68,5.74-4.66,5.69s-8,0-12,0Z"/><path class="cls-2" d="M520.85,323.9A31.16,31.16,0,0,1,519,327c-7.23,9.75-14.56,19.43-21.71,29.24-2.38,3.28-4.61,3.71-7.82,1.1-4.51-3.67-9.26-7.05-13.9-10.56-1.9-1.45-3.18-3.22-1.49-5.49s3.7-1.74,5.67-.24c3.17,2.42,6.51,4.65,9.5,7.28,2.42,2.12,3.78,2,5.71-.71,6.08-8.52,12.46-16.84,18.69-25.26,1.16-1.56,2.45-2.85,4.56-2.21C519.77,320.66,520.55,321.94,520.85,323.9Z"/><path class="cls-2" d="M464.64,180.17c4.06,6.69,7.82,12.93,11.64,19.12,1.37,2.21,3,4.56,0,6.45s-4.5-.21-5.91-2.55c-5-8.23-10.07-16.42-15.11-24.63-1-1.58-1.94-3.14-.57-5s3.12-1.65,5-1.38q13.56,2,27.11,4c2.51.38,4.72,1.33,4.19,4.41-.49,2.84-2.77,2.9-5.06,2.58Z"/><path class="cls-2" d="M170.09,323.82c-.68,1.13-1.26,2.32-2,3.37-7.24,9.75-14.57,19.43-21.72,29.24-2.26,3.09-4.42,3.58-7.45,1.18-4.43-3.52-8.95-6.93-13.5-10.28-2.22-1.64-4-3.51-2-6.15,1.86-2.41,4.08-1.22,6.08.35,3,2.35,6.27,4.43,9.1,7,2.56,2.31,3.79,1.63,5.62-.93,6-8.39,12.22-16.61,18.44-24.83,2.51-3.31,5.15-3.58,6.73-.9A12.77,12.77,0,0,1,170.09,323.82Z"/><path class="cls-2" d="M246.94,669.87c-.15,3.24-3.26,4.17-6.85,1.89-8.7-5.53-17.44-11-26-16.81-2.81-1.91-4.35-1.88-6.26,1-2.1,3.19-4.77,6-7.13,9-1.5,1.92-3.34,3.1-5.53,1.51s-1.69-3.75-.16-5.68c3.85-4.81,7.73-9.59,11.57-14.41,1.65-2.07,3.56-2.27,5.69-.9Q228.68,656,245,666.59A3.62,3.62,0,0,1,246.94,669.87Z"/><path class="cls-2" d="M561.53,302.07c-.68.73-1.38,1.4-2,2.14-2.62,3.23-5.24,6.46-7.81,9.74-1.61,2.05-3.53,3.46-5.88,1.53-2.11-1.73-1.31-3.85.2-5.73q5.64-7,11.24-14c1.76-2.22,3.71-2.45,6.09-.91,10.62,6.86,21.28,13.65,31.9,20.51,2,1.25,3.53,2.86,1.89,5.32-1.76,2.63-3.95,1.74-6.07.38q-13.22-8.5-26.44-17C563.68,303.39,562.69,302.79,561.53,302.07Z"/><path class="cls-2" d="M197,316.28a3.28,3.28,0,0,1-2.52-5.44c4.06-5.48,8.42-10.75,12.83-16,1.57-1.85,3.56-1.12,5.4.06q15.72,10.14,31.48,20.24c2.11,1.36,3.9,3.05,2,5.66s-4.08,1.4-6.15.07c-8.81-5.67-17.7-11.23-26.39-17.09-2.5-1.68-3.78-1.56-5.49.91-2.25,3.29-4.95,6.27-7.42,9.41C199.78,315.36,198.75,316.39,197,316.28Z"/><path class="cls-2" d="M562,653.16c-1.47,0-1.87,1.26-2.56,2.08-2.75,3.32-5.43,6.7-8.13,10.07-1.57,2-3.52,2.72-5.54,1-1.82-1.59-1.38-3.57,0-5.33q5.75-7.2,11.51-14.39c2-2.47,4.1-2.2,6.52-.63,10.45,6.76,20.94,13.44,31.39,20.18,1.92,1.24,3.61,2.77,2.06,5.28s-3.8,2-6,.62q-13.17-8.5-26.35-17Z"/><path class="cls-2" d="M284,606.5c-20.6-.77-33.68-11.86-37.57-31.78a31.76,31.76,0,0,1-.43-4.47,3.18,3.18,0,0,1,3.19-3.67c2.1-.16,3.41,1,3.76,3.16.38,2.3.6,4.63,1.17,6.87,3.57,14,13.4,21.76,29,22.82,1.5.1,3,.05,4.5.07,2.34,0,3.93,1.16,3.93,3.55,0,2.13-1.48,3.27-3.56,3.43C286.63,606.58,285.3,606.5,284,606.5Z"/><path class="cls-2" d="M285.31,548.64c-11.73-2.34-23.49-4.54-35.17-7.1-2.79-.62-3.88,0-4.69,2.55a76.19,76.19,0,0,1-3.33,8.31c-.84,1.87-2.35,2.86-4.44,2-1.94-.83-2.77-2.37-2-4.44,1.82-4.81,3.63-9.62,5.62-14.36.79-1.88,2.44-2.52,4.55-2.09q20.26,4.18,40.53,8.27c2.26.46,3.8,1.68,3.38,4.07S287.63,549,285.31,548.64Z"/><path class="cls-2" d="M636.1,606.62c-20.84-.26-34.47-11.26-38.68-31a44.32,44.32,0,0,1-.55-4.45c-.26-2.47.44-4.49,3.21-4.62s3.48,1.84,3.86,4.23c3,19.23,13.13,28.22,32.07,28.65,2.76.07,6.37-.62,6.23,3.65S638.41,606.35,636.1,606.62Z"/><path class="cls-2" d="M596,533.33c14,2.85,27.48,5.61,41,8.35,2.45.5,4.19,1.77,3.51,4.41s-2.65,3-5.15,2.49c-11.4-2.36-22.86-4.43-34.2-7-3.09-.7-4.18.11-5,2.75s-2,5.29-3.09,7.88c-.81,1.88-2.25,3-4.35,2.25s-3.06-2.44-2.15-4.77c1.81-4.64,3.59-9.29,5.47-13.9A3.57,3.57,0,0,1,596,533.33Z"/><path class="cls-2" d="M636.14,197.8c-11.74-2.33-23.5-4.53-35.19-7.09-2.79-.61-3.87.12-4.69,2.55-.9,2.67-2,5.27-3.1,7.87-.87,2.07-2.33,3.41-4.66,2.38-2.1-.93-2.82-2.6-1.86-4.92q2.65-6.43,5.1-13c.91-2.43,2.49-3.38,5-2.88q20.28,4.08,40.56,8.15c2.29.46,3.73,1.8,3.3,4.13S638.47,198.27,636.14,197.8Z"/><path class="cls-2" d="M245.31,182.57l34.23,6.89c2.12.42,4.21,1,6.34,1.33,2.43.4,4.36,1.5,3.87,4.16-.52,2.87-2.76,3.3-5.42,2.75-11.39-2.34-22.83-4.48-34.18-7-2.74-.6-3.89-.08-4.68,2.51s-2,5.27-3.1,7.87c-.87,2.07-2.3,3.44-4.65,2.49-2.18-.89-2.81-2.65-1.92-4.91q2.65-6.71,5.24-13.45A3.89,3.89,0,0,1,245.31,182.57Z"/><path class="cls-2" d="M283.28,255.78c-19.64-.63-33.07-12.09-36.9-32a33.5,33.5,0,0,1-.4-3.47c-.22-2.45.44-4.42,3.29-4.55,2.46-.11,3.43,1.46,3.74,3.76a48.8,48.8,0,0,0,1.36,7.33c4,13.65,14,21.07,29.33,21.85a34.06,34.06,0,0,0,3.5,0c2.3-.12,4.11.7,4.29,3.12.2,2.69-1.66,3.77-4.12,3.92C286.21,255.84,285,255.78,283.28,255.78Z"/><path class="cls-2" d="M496,369.87c14,.28,24.09,7.37,31.62,18.72,1.47,2.21,2,4.49-.66,6-2.34,1.34-3.91-.1-5.28-2.14-6.61-9.86-15.28-16.18-27.78-15.43a36.94,36.94,0,0,0-14.69,4.47c-2.37,1.22-4.8,2.28-6.3-.94-1.34-2.89.84-4.27,3-5.34C482.21,372.1,488.73,369.69,496,369.87Z"/><path class="cls-2" d="M38,599.7c0-12.23,10.32-26.85,23.82-31.44,2.2-.75,4.38-1,5.48,1.63s-.71,3.87-2.75,5c-18.12,9.62-22.79,20.77-17,40.76.72,2.51,1,4.8-1.91,5.73s-4-1.19-4.85-3.61A50.8,50.8,0,0,1,38,599.7Z"/><path class="cls-2" d="M145.66,18.91c13.69.51,23.86,7.66,31.36,19.29,1.24,1.93,1.49,3.9-.53,5.28-2.17,1.48-4.09.74-5.44-1.49a34.9,34.9,0,0,0-8.55-9.68c-9.32-7.22-19.42-8-30.09-3.48a51,51,0,0,0-5,2.28c-2.07,1.14-4,1.15-5.19-.95-1.27-2.26-.37-4.07,2-5.31A47,47,0,0,1,145.66,18.91Z"/><path class="cls-2" d="M496.66,18.94c13.41.43,23.61,7.57,31.15,19.16,1.37,2.11,1.55,4.27-.81,5.59s-4,.16-5.33-2a34.05,34.05,0,0,0-8.25-9.29c-10.78-8.44-22.13-7.73-33.74-2-2.43,1.2-5,3-6.73-.57s1.37-4.62,3.74-5.8A45.24,45.24,0,0,1,496.66,18.94Z"/><path class="cls-2" d="M625.54,501.71a38.44,38.44,0,0,1-28.93-13.47c-1.79-2-3.9-4.38-1-6.79,2.58-2.12,4.42,0,6.19,2,10.49,11.85,24.89,14.34,40.91,7.32,2.74-1.2,6.33-4.75,8.34.07,1.91,4.59-3.07,5.06-5.79,6.34A47.58,47.58,0,0,1,625.54,501.71Z"/><path class="cls-2" d="M635.06,255.77c-20.1-.45-33.61-11.61-37.67-31.1a34.21,34.21,0,0,1-.53-4.95c-.12-2.06.61-3.65,2.89-3.91,2.48-.29,3.69,1.13,4.07,3.39.25,1.47.25,3,.57,4.45,3.42,15.79,13.72,24.3,30.29,25.08,1.16.05,2.33,0,3.49,0,2.28-.06,4,.69,4.13,3.24s-1.51,3.55-3.75,3.77A33.84,33.84,0,0,1,635.06,255.77Z"/><path class="cls-2" d="M63.41,216.94c2.19-.14,3.36.63,4,2.22.79,2.16-.26,3.63-2.08,4.44a43.23,43.23,0,0,0-8.2,4.7c-10.8,8.11-14.45,19.57-10.6,33.29.36,1.28.82,2.53,1.24,3.79.8,2.42.3,4.44-2.25,5.22-2.39.73-3.57-.91-4.47-2.92-8.63-19.37.84-42.54,20.52-50.09C62.29,217.3,63.07,217.06,63.41,216.94Z"/><path class="cls-2" d="M145.21,369.86c14.06.32,24.06,7.5,31.59,18.81,1.32,2,2,4.1-.38,5.69-2.58,1.75-4.19.17-5.66-2-6.65-9.82-15.29-16.15-27.81-15.34a36.48,36.48,0,0,0-14.66,4.5c-2.22,1.17-4.58,2.12-6.07-.58-1.61-2.92.43-4.57,2.91-5.78C131.46,372.06,138,369.77,145.21,369.86Z"/><path class="cls-2" d="M388.86,252.58a37,37,0,0,1,23.4-35c2.17-.85,4.35-1.49,5.64,1,1.38,2.69-.22,4.16-2.63,5.41-17.78,9.28-22.92,21.41-17,40.37.84,2.72,1.32,5.17-1.82,6.15-3.32,1.05-4.24-1.78-5-4.18C389.86,261.61,388.65,256.78,388.86,252.58Z"/><path class="cls-2" d="M388.86,602.63a37.08,37.08,0,0,1,23.41-34.21c2.11-.8,4.38-1.46,5.66,1.11,1.38,2.77-.4,4.17-2.72,5.39-17.74,9.28-22.88,21.43-17,40.38.84,2.69,1.38,5.08-1.87,6.08-3,.91-4-1.39-4.79-3.75C389.85,612.55,388.68,607.39,388.86,602.63Z"/><path class="cls-2" d="M239.51,462.15c-2.5,5.94-4.79,11.27-7,16.66-1,2.43-2.37,4.27-5.2,3.13s-2.37-3.49-1.37-5.86c2.79-6.57,5.43-13.2,8.25-19.76,1.85-4.32,3.92-4.78,7.56-1.61,7.28,6.35,14.45,12.82,21.67,19.24,1.88,1.67,3.43,3.53,1.25,5.9s-4.12,1-6-.68C252.49,473.63,246.27,468.14,239.51,462.15Z"/><path class="cls-2" d="M624.35,150.87c-10.88-.38-20.9-5.11-28.65-14.54-1.54-1.87-2.31-3.89-.15-5.66s3.83-.79,5.57,1.06c11.75,12.5,24.28,15.18,40.1,8.72,1.23-.5,2.45-1,3.63-1.62,2.39-1.2,4.88-2.15,6.32,1,1.3,2.87-.88,4.11-3.08,5.24A54.83,54.83,0,0,1,624.35,150.87Z"/><path class="cls-2" d="M274.59,501.72a38.58,38.58,0,0,1-29.54-14.29c-1.65-1.95-2.63-4.18-.17-6.05,2.13-1.62,3.83-.43,5.52,1.39,11.65,12.45,24.54,15,40.67,8.23,1.07-.45,2.13-.92,3.16-1.44,2.23-1.14,4.5-1.93,6,.87s-.5,4.28-2.69,5.37A52.91,52.91,0,0,1,274.59,501.72Z"/><path class="cls-2" d="M239.48,111.29l-6.89,16.56c-.94,2.27-2.12,4.43-5.08,3.32-3.32-1.24-2.5-3.72-1.46-6.17,2.76-6.56,5.43-13.16,8.25-19.69,1.77-4.08,3.82-4.6,7.18-1.68,7.39,6.42,14.67,13,22,19.48,1.88,1.67,3.4,3.57,1.21,5.89s-4.11,1-6-.7C252.51,122.77,246.28,117.31,239.48,111.29Z"/><path class="cls-2" d="M275.16,150.92c-12-.35-21.78-4.79-29.55-13.67-1.69-1.93-3.51-4.14-1-6.46s4.38-.45,6.19,1.57c10.92,12.17,24.92,14.62,41.28,7.44,2.66-1.17,6.07-4.4,8.06,0,2.08,4.58-2.77,5.1-5.48,6.42A48,48,0,0,1,275.16,150.92Z"/><path class="cls-2" d="M590.35,462.18c-2.42,5.75-4.74,11.06-6.9,16.44-1.07,2.64-2.58,4.63-5.56,3.2-2.78-1.33-1.93-3.76-.95-6.05,2.73-6.41,5.33-12.88,8.09-19.28,1.94-4.49,3.84-5,7.47-1.84,7.29,6.33,14.46,12.81,21.71,19.18,1.93,1.7,3.4,3.65,1.42,5.94-2.27,2.63-4.38,1-6.38-.84C603.07,473.4,596.83,467.92,590.35,462.18Z"/><path class="cls-2" d="M590.35,111.32c-2.54,6-4.88,11.31-7,16.69-1,2.47-2.34,4.26-5.16,3.08s-2.29-3.52-1.29-5.87c2.79-6.57,5.42-13.21,8.24-19.76,1.87-4.34,3.84-4.75,7.51-1.55,7.28,6.34,14.46,12.8,21.7,19.19,1.93,1.71,3.28,3.68,1.17,5.93s-4.13.89-6-.8C603.27,122.7,597,117.22,590.35,111.32Z"/><path class="cls-2" d="M436.45,641.36a3.51,3.51,0,0,1-2,3.21,3.1,3.1,0,0,1-4.05-.83c-5.65-7-11.29-13.91-16.75-21-1.69-2.19-.51-4.18,1.75-5.26q12.78-6.09,25.64-12c2.13-1,4-.49,4.88,1.8s-.11,3.8-2.27,4.79c-5.72,2.62-11.33,5.49-17.14,7.89-3.57,1.47-4.67,2.66-1.56,5.94,3.52,3.73,6.51,8,9.72,12A6,6,0,0,1,436.45,641.36Z"/><path class="cls-2" d="M95.43,608.25c-.07,2.36-1.47,3.31-3.27,4.13-6,2.75-12,5.73-18.07,8.39-2.39,1-2.59,1.88-.93,3.85,3.76,4.45,7.3,9.08,11,13.61,1.66,2,2.49,4.13,0,6-2.36,1.73-4,.22-5.46-1.6-5-6.23-10-12.48-15-18.7-2.36-2.92-1.84-5.17,1.51-6.74Q77.53,611.36,90,605.63C93,604.24,94.72,605.38,95.43,608.25Z"/><path class="cls-2" d="M352.27,103.18c-3.71-6.23-6.95-11.63-10.16-17.05-1.35-2.27-2.5-4.69.58-6.41,2.84-1.59,4.18.59,5.43,2.68,4.16,7,8.41,13.95,12.49,21,2.31,4,1.05,6.19-3.61,6.58-8.12.68-16.26,1.3-24.39,1.94-2.62.2-5.39.24-5.59-3.24s2.58-3.63,5.2-3.82C338.68,104.37,345.13,103.78,352.27,103.18Z"/><path class="cls-2" d="M71.32,271.3C75.69,276.79,79.8,282,84,287.15c1.59,2,2.8,4.05.34,6.05s-4.24.41-5.83-1.58c-4.87-6.12-9.73-12.25-14.69-18.31-2.55-3.11-2.06-5.39,1.52-7.07,8-3.73,16-7.42,23.93-11.16,2.33-1.09,4.61-1.64,5.83,1.3s-.84,4.2-3.1,5.26C85.2,264.79,78.45,268,71.32,271.3Z"/><path class="cls-2" d="M352.22,454c-3.55-6-6.69-11.23-9.82-16.5-1.4-2.35-3.07-5,.21-6.88,3.05-1.79,4.42.81,5.73,3,4.08,6.86,8.23,13.67,12.23,20.58q3.51,6.06-3.51,6.67c-8.29.73-16.6,1.3-24.91,2-2.56.2-4.91-.19-5.14-3.27s2.17-3.6,4.69-3.8C338.33,455.22,345,454.61,352.22,454Z"/><path class="cls-2" d="M422.15,271.28c4.23,5.33,8.22,10.41,12.28,15.44,1.66,2.06,3.32,4.25.7,6.45s-4.51.09-6.13-1.94c-4.78-6-9.51-12-14.36-17.93-2.56-3.13-2.08-5.39,1.52-7.07,8-3.72,16-7.42,23.93-11.17,2.36-1.11,4.66-1.54,5.84,1.35s-.84,4.19-3.15,5.25C436,264.78,429.24,268,422.15,271.28Z"/><path class="cls-2" d="M230.16,595.52c.72.33,1.81.72,2.81,1.28q21.9,12.26,43.78,24.55c1.29.73,2.72,1.36,3.14,3a3.32,3.32,0,0,1-1.11,3.58c-1.95,1.7-3.68.61-5.44-.39L236.07,606.6c-2.74-1.55-5.52-3-8.18-4.71A3.14,3.14,0,0,1,226.4,598C226.93,596.45,228.11,595.65,230.16,595.52Z"/><path class="cls-2" d="M581.13,244.7c.71.33,1.94.79,3.08,1.43q21.48,12,42.93,24.09c1.57.88,3.34,1.66,3.73,3.72a3.31,3.31,0,0,1-1.6,3.4c-1.64,1.21-3.14.46-4.62-.38L593,259.16c-4.62-2.61-9.25-5.2-13.86-7.82-1.6-.91-2.49-2.25-1.95-4.13C577.67,245.61,578.87,244.8,581.13,244.7Z"/><path class="cls-2" d="M230.35,244.77a31.33,31.33,0,0,1,3,1.36q21.54,12.06,43,24.16c2.23,1.26,4.8,2.64,3.19,5.71s-4,2-6.41.63q-21.93-12.39-43.9-24.7c-1.82-1-3.53-2.16-2.9-4.6C226.79,245.76,227.91,244.77,230.35,244.77Z"/><path class="cls-2" d="M581.16,595.54c.85.4,2.08.89,3.23,1.53q21.47,12,42.92,24.1c1.85,1,4.22,2.09,3.47,4.78s-2.71,3.7-5.4,2.2l-46-25.78c-1.78-1-2.82-2.41-2.13-4.49C577.8,596.31,579.09,595.6,581.16,595.54Z"/><path class="cls-2" d="M428.83,391.2q23.76,2.6,47.52,5.22c2.44.27,4.91,1,4.47,4.1-.4,3-2.69,3.28-5.31,3q-23.49-2.73-47-5.3c-2.59-.29-4.79-.93-4.46-4C424.33,391.42,426.43,390.87,428.83,391.2Z"/><path class="cls-2" d="M493.75,113.4c5.35,2.82,10.19,5.39,15.05,7.9,2.23,1.16,4.24,2.62,2.87,5.39s-3.66,2.27-6,1c-6.31-3.33-12.67-6.57-18.95-10-4.13-2.23-4.42-4.8-.76-7.5,6.69-4.93,13.52-9.66,20.26-14.53,2.12-1.53,4.23-2.37,6,.21s-.14,4.26-2.12,5.69Z"/><path class="cls-2" d="M493.79,464.28c5.45,2.86,10.26,5.4,15.09,7.88,2.27,1.17,4.17,2.71,2.79,5.42s-3.71,2.18-6,1c-6.44-3.42-12.94-6.73-19.33-10.25-3.77-2.08-3.9-4.6-.38-7.19,6.69-4.92,13.5-9.68,20.23-14.53,2.09-1.51,4.2-2.44,6,.15s-.05,4.25-2,5.69Z"/><path class="cls-2" d="M78,391.19q23.76,2.63,47.52,5.26c2.43.28,4.88.93,4.39,4.14-.47,3-2.79,3.18-5.35,2.88q-23.49-2.72-47-5.29c-2.62-.29-4.8-1.06-4.42-4.08C73.49,391.47,75.6,390.79,78,391.19Z"/><path class="cls-2" d="M142.89,464.26c5.59,2.92,10.42,5.48,15.28,8,2.34,1.21,4,2.93,2.54,5.53-1.29,2.36-3.54,2-5.66.86-6.59-3.48-13.22-6.9-19.77-10.45-3.31-1.78-3.73-4.35-.7-6.61,7-5.27,14.26-10.29,21.41-15.41,1.86-1.34,3.75-1.59,5.26.37,1.69,2.21.73,4-1.29,5.47Z"/><path class="cls-2" d="M142.91,113.41c5.42,2.85,10.39,5.5,15.41,8.07,2.19,1.12,3.64,2.72,2.5,5.15-1.29,2.77-3.57,2.38-5.9,1.14-6.45-3.42-13-6.73-19.38-10.24-3.79-2.09-3.94-4.63-.39-7.25,6.82-5,13.77-9.9,20.65-14.85,2-1.48,4.1-1.78,5.62.48s.29,4-1.71,5.42C154.17,105.26,148.67,109.26,142.91,113.41Z"/><path class="cls-2" d="M76.58,40.12l49.91,5.67c2.33.27,3.77,1.47,3.46,3.92s-2.07,3.34-4.32,3.09q-24.5-2.76-49-5.6c-2.32-.27-3.82-1.48-3.51-3.9A3.47,3.47,0,0,1,76.58,40.12Z"/><path class="cls-2" d="M477.34,52.84C464,51.35,451.27,50,438.57,48.52c-3.63-.4-7.25-.89-10.87-1.28C425.4,47,423.79,46,424,43.5c.24-2.73,2.19-3.52,4.64-3.25q18.8,2.07,37.6,4.21c3.79.43,7.57.92,11.36,1.4,2.13.27,3.43,1.56,3.24,3.66A3.39,3.39,0,0,1,477.34,52.84Z"/><path class="cls-2" d="M24.3,284.84c.22,3.09-.67,4.83-3.09,5-2.78.19-3.6-2-4-4.2Q13,264.61,9,243.57c-.22-1.14-.53-2.27-.74-3.41-.4-2.26-.48-4.56,2.31-5.25,2.94-.72,4.14,1,4.65,3.74,1.64,8.82,3.4,17.61,5.15,26.42C21.68,271.91,23.08,278.75,24.3,284.84Z"/><path class="cls-2" d="M374.88,283.67c.61,3.78,0,5.81-2.71,6.17-2.43.32-3.6-1.4-4-3.56q-4.58-23.22-9.07-46.48c-.44-2.29-.24-4.5,2.66-5,2.41-.41,3.76.95,4.21,3.22C369,253.68,372.07,269.34,374.88,283.67Z"/><path class="cls-2" d="M375.26,636.35c.19,2.41-.85,4.11-3.18,4.31-2.68.22-3.59-1.81-4-4.14q-4-20.55-8-41.08c-.32-1.63-.69-3.25-1-4.89-.41-2.37,0-4.52,2.76-4.94s3.77,1.36,4.23,3.8c1.73,9.14,3.52,18.27,5.31,27.4C372.63,623.32,374,629.83,375.26,636.35Z"/><path class="cls-2" d="M24.32,636.6c.24,2.16-.76,3.78-2.79,4-3,.39-3.92-1.89-4.4-4.34q-3-15.66-6.1-31.31c-.9-4.56-1.8-9.13-2.73-13.69-.5-2.45-.65-4.92,2.4-5.62s4,1.3,4.49,3.94c2.9,15,5.89,30,8.84,45C24.16,635.27,24.23,635.94,24.32,636.6Z"/><path class="cls-2" d="M225.38,277.34c4.64-3,8.48-5.51,12.29-8,2.13-1.41,4.39-2.31,6,.34s0,4.23-2.21,5.66c-5.87,3.75-11.65,7.63-17.45,11.48-1.58,1.05-3.25,2-5.07.92-2-1.2-1.9-3.2-1.59-5.3,1-6.56,1.83-13.14,2.7-19.72.33-2.5,1.09-4.84,4.12-4.53s3.22,2.81,2.9,5.3C226.55,267.7,226,272,225.38,277.34Z"/><path class="cls-2" d="M604.5,289.57c-4.73,3-8.51,5.35-12.23,7.79-2.11,1.39-4.33,2.42-6.06-.13s-.24-4.29,2-5.71c6-3.78,12-7.63,18-11.49,1.63-1.06,3.28-1.78,5-.55,1.53,1.06,1.69,2.66,1.41,4.45-1,6.71-2,13.45-3,20.16-.4,2.51-1,5.37-4.45,4.67-3.24-.67-3-3.31-2.52-6C603.43,298.71,603.84,294.6,604.5,289.57Z"/><path class="cls-2" d="M604.05,640.72c-4.26,2.69-8.17,5.13-12,7.63-2.2,1.42-4.41,2.09-6-.59-1.38-2.38.07-4,2.1-5.33q9-5.73,18.05-11.53c1.64-1,3.31-1.77,5.08-.59s1.64,3,1.34,4.94c-1,6.56-1.93,13.15-3,19.71-.4,2.54-1.08,5.31-4.51,4.59-2.92-.62-2.84-3-2.52-5.58C603.14,649.76,604.41,645.61,604.05,640.72Z"/><path class="cls-2" d="M253.67,289.59c-5,3.19-8.91,5.64-12.77,8.14-2.08,1.36-4.19,1.71-5.61-.61s-.37-4,1.8-5.39q9.27-5.82,18.44-11.78c1.65-1.06,3.29-1.66,5-.39,1.57,1.14,1.52,2.82,1.27,4.52-1,6.72-2,13.45-3,20.17-.36,2.41-1.07,4.9-4.13,4.56s-3.26-2.74-2.89-5.28C252.41,299.28,252.94,295,253.67,289.59Z"/><path class="cls-2" d="M253.68,640.46c-4.57,2.87-8.47,5.28-12.31,7.77-2.15,1.4-4.42,2.31-6.07-.28s0-4.33,2.21-5.71q8.87-5.58,17.67-11.24c1.62-1,3.28-1.87,5.1-.8,2.12,1.25,1.77,3.35,1.46,5.36-1,6.41-1.9,12.83-2.88,19.24-.39,2.57-1,5.32-4.38,4.79-3.06-.47-3-3-2.65-5.49C252.47,649.86,253,645.6,253.68,640.46Z"/><path class="cls-2" d="M287.49,167l-30.95-5.36c-4.09-.72-8.17-1.48-12.27-2.19-2.39-.42-4.26-1.5-3.74-4.23s2.45-3.21,5-2.76q21.11,3.78,42.23,7.44c2.51.44,4.13,1.58,3.75,4.22C291.17,166.14,289.66,167.17,287.49,167Z"/><path class="cls-2" d="M638.55,167c-10.58-1.84-21-3.64-31.52-5.47-4.09-.71-8.16-1.5-12.25-2.22-2.27-.41-3.87-1.62-3.47-4,.43-2.56,2.33-3.36,4.88-2.9q21.09,3.77,42.19,7.43c2.45.42,4.16,1.35,3.9,4.1C642.06,166.15,640.54,167,638.55,167Z"/><path class="cls-2" d="M244.06,503.06l37,6.45c2.46.43,4.9.9,7.35,1.37s3.53,1.88,3,4.24a3.31,3.31,0,0,1-4.14,2.69c-14.56-2.53-29.1-5.14-43.65-7.74-2.35-.41-3.55-1.88-3-4.24A3.25,3.25,0,0,1,244.06,503.06Z"/><path class="cls-2" d="M286,533.72c-14.94-2.62-29.32-5.16-43.71-7.67-2.6-.45-3.94-1.89-3.32-4.49.66-2.79,2.94-2.78,5.2-2.38q17.89,3.14,35.79,6.31c2.29.41,4.58.83,6.85,1.29,2.08.42,3.35,1.73,3,3.85A3.41,3.41,0,0,1,286,533.72Z"/><path class="cls-2" d="M576.12,628.26c4.55-3,8.56-5.57,12.55-8.2,2-1.3,4.08-2,5.71.2,1.8,2.5.31,4.31-1.86,5.73q-9.15,6-18.28,12c-1.48,1-3,1.53-4.6.44s-1.78-2.68-1.54-4.41q1.47-10.6,2.92-21.19c.33-2.45,1.48-4.17,4.19-3.81,2.48.33,3.12,2.2,2.84,4.44C577.46,618.17,576.83,622.87,576.12,628.26Z"/><path class="cls-2" d="M576.11,277.41c4.51-2.94,8.53-5.53,12.51-8.18,2.19-1.45,4.43-2.12,6,.55,1.38,2.35,0,4-2.07,5.34q-9,5.85-17.92,11.81c-1.62,1.08-3.26,1.81-5.07.63s-1.65-3.12-1.39-5c.93-6.76,1.92-13.51,2.82-20.28.32-2.42,1.25-4.37,3.94-4.16s3.41,2.29,3.09,4.74C577.43,267.49,576.81,272.1,576.11,277.41Z"/><path class="cls-2" d="M225.37,628.13l11.82-7.67c2.17-1.41,4.61-2.91,6.46,0s-.31,4.48-2.59,5.95c-5.86,3.76-11.66,7.62-17.47,11.47-1.45,1-3,1.7-4.62.7s-2-2.82-1.71-4.8c1-6.73,1.89-13.47,2.8-20.22.34-2.48,1-4.82,4.11-4.52s3.2,2.82,2.9,5.26C226.56,618.56,226,622.83,225.37,628.13Z"/><path class="cls-2" d="M637,533.74l-35.75-6.23L592.9,526c-2.33-.42-3.6-1.78-3.21-4.16s2.26-3.17,4.49-2.78q21.59,3.78,43.15,7.63c2.28.4,3.71,1.73,3.27,4.12A3.37,3.37,0,0,1,637,533.74Z"/><path class="cls-2" d="M637.27,182.93c-12.64-2.18-24.58-4.24-36.53-6.32-2.45-.43-4.88-1-7.34-1.38s-4.17-1.52-3.7-4.22,2.54-3.16,5-2.73L630,174.53c2.62.46,5.25.86,7.84,1.44,2.07.46,3.2,1.93,2.78,4A3.34,3.34,0,0,1,637.27,182.93Z"/><path class="cls-2" d="M595.81,503.17Q617.38,507,639,510.82c2.38.42,3.64,1.69,3.26,4.09s-2.16,3.25-4.42,2.86q-21.59-3.79-43.15-7.65c-2.31-.41-3.75-1.74-3.32-4.08S593.46,502.79,595.81,503.17Z"/><path class="cls-2" d="M242.33,168.09c12.43,2.16,24.38,4.22,36.32,6.31,2.29.4,4.56.92,6.86,1.27,2.55.38,4.83,1.3,4.22,4.31-.58,2.84-2.87,3.13-5.51,2.64-11.76-2.16-23.54-4.19-35.32-6.26-2.45-.44-4.92-.82-7.36-1.32-2.17-.44-3-1.94-2.7-4A3.23,3.23,0,0,1,242.33,168.09Z"/><path class="cls-2" d="M43.05,75.94c5.34.41,9.48.77,13.62,1,2.54.17,4.27,1.37,4,4-.22,2.3-2,3.3-4.32,3.09-1-.09-2-.08-3-.13-9.48-.54-9.5-.54-11.12,9-.75,4.42-1.48,8.84-2.11,13.28-.35,2.47-1.37,4.24-4.12,3.84s-3.26-2.47-2.88-4.88c1.33-8.36,2.72-16.71,4-25.08C37.85,75.62,40.87,75.58,43.05,75.94Z"/><path class="cls-2" d="M404.46,84c-9.95-.67-9.93-.67-11.37,9.12-.65,4.43-1.41,8.85-2.08,13.28-.34,2.26-1.42,3.81-3.88,3.61-2.85-.23-3.47-2.26-3.1-4.66q2-13,4.14-26.06c.37-2.21,1.71-3.57,4.15-3.4,5.3.37,10.6.71,15.9,1.15a3.31,3.31,0,0,1,3.31,3.63A3.27,3.27,0,0,1,408,84Z"/><path class="cls-2" d="M396.84,427c3.68.32,7.32.69,11,.94,2.4.17,3.85,1.42,3.7,3.73s-1.75,3.48-4.13,3.29c-3.14-.24-6.31-.37-9.42-.85-2.66-.42-3.48.72-3.82,3.11-.94,6.57-2.08,13.11-3.05,19.67-.36,2.42-1.28,4.34-4,4.05-3.11-.32-3.41-2.71-3-5.22,1.32-8.36,2.63-16.71,4-25.05C389.08,424.87,393.62,427.42,396.84,427Z"/><path class="cls-2" d="M47.41,427.09c2.23.19,5.87.56,9.51.81,2.37.17,3.92,1.39,3.81,3.69S59,435.12,56.63,435a88.18,88.18,0,0,1-8.93-.84c-3-.53-4.1.56-4.49,3.46-.86,6.41-2.06,12.78-3,19.18-.4,2.64-1.4,4.73-4.38,4.09s-3-3.07-2.56-5.58c1.19-6.87,2.3-13.75,3.47-20.62C38.1,426.64,38.11,426.64,47.41,427.09Z"/><path class="cls-2" d="M616.51,63.52c-2.33,9.26-4.63,18.45-6.94,27.64-.69,2.73-1.44,5.46-2.12,8.2-.59,2.36-1.82,4.2-4.49,3.47-2.48-.67-3.06-2.56-2.39-5.13,3-11.57,5.87-23.19,8.82-34.78.54-2.1,1.69-3.72,4.2-3.33C615.81,59.93,616.49,61.55,616.51,63.52Z"/><path class="cls-2" d="M249.53,449.46c2.63-10.39,5.27-20.87,7.92-31.34.41-1.61.85-3.22,1.31-4.81.65-2.23,2.08-3.57,4.42-2.8s2.88,2.44,2.27,4.78c-2.39,9.17-4.68,18.37-7,27.55-.7,2.74-1.36,5.48-2.14,8.2-.58,2-2,3.19-4.1,2.68S249.33,451.64,249.53,449.46Z"/><path class="cls-2" d="M616.44,414.59c-2.23,8.9-4.48,17.93-6.76,27-.77,3.06-1.62,6.1-2.43,9.16-.6,2.24-2,3.66-4.34,3-2.16-.63-3-2.33-2.43-4.72,3-11.75,5.94-23.52,8.95-35.27.54-2.1,1.73-3.75,4.2-3.29C615.75,410.78,616.59,412.34,616.44,414.59Z"/><path class="cls-2" d="M249.47,98.75q4-15.87,8.08-31.74c.45-1.76.82-3.56,1.44-5.26a3.14,3.14,0,0,1,3.94-2.14c2.09.51,3.19,2.09,2.7,4.09-3,12.2-6.17,24.37-9.32,36.54-.53,2-2,3.12-4.12,2.64S249.36,100.82,249.47,98.75Z"/><path class="cls-2" d="M62.55,415.38a3.73,3.73,0,0,1-2,3.23,3.06,3.06,0,0,1-3.71-.46c-4.81-4.84-9.71-9.61-14.26-14.67-1.73-1.92-.75-4.06,1.44-5.43,4.79-3,9.59-6,14.35-9,2-1.24,3.91-1.48,5.25.56s.69,4.08-1.54,5.45c-3,1.83-5.86,3.8-8.88,5.55-2,1.16-2,2.05-.34,3.62,2.68,2.48,5.13,5.21,7.73,7.79A5.74,5.74,0,0,1,62.55,415.38Z"/><path class="cls-2" d="M401.17,402.52c3.79,3.48,7.12,6.48,10.37,9.56,1.9,1.8,2.77,3.95.52,6s-3.93.65-5.58-1c-4-4.05-7.94-8.06-11.9-12.1-2.7-2.76-2.6-5.14.86-7.24,4.4-2.68,8.74-5.46,13.07-8.26,2.14-1.39,4.37-2.36,6.05.28s.17,4.29-2.13,5.67C408.91,397.51,405.47,399.78,401.17,402.52Z"/><path class="cls-2" d="M401.15,51.66l10.08,9.27c1.9,1.74,3.12,3.86,1.09,6s-4.13,1-5.94-.9c-3.8-4-7.63-7.89-11.54-11.74-3-2.91-2.95-5.3.74-7.56,4.54-2.76,9-5.64,13.49-8.52,2.13-1.36,4.24-1.56,5.59.76s.23,4-2,5.36C409.16,46.5,405.7,48.78,401.15,51.66Z"/><path class="cls-2" d="M377.74,666.22c-.06.35-.09.52-.12.68-.25,1.67-13.65,16.38-15.26,16.75a3.29,3.29,0,0,1-3.47-1.36,3.2,3.2,0,0,1,.22-4.51,108.35,108.35,0,0,1,7.71-8.44c2.47-2.29,2-3.83-.21-5.88-2.65-2.49-5.05-5.26-7.49-8a3.45,3.45,0,0,1,4.67-5.06c4.55,4.59,8.9,9.37,13.27,14.12A4.79,4.79,0,0,1,377.74,666.22Z"/><path class="cls-2" d="M10.71,298.88c1.5-.13,2.47.76,3.4,1.75,3.65,3.89,7.25,7.83,11,11.64,2.16,2.21,2.27,4.18.12,6.47-3.76,4-7.38,8.15-11.07,12.23-1.6,1.77-3.43,2.91-5.58,1s-1.31-3.72.22-5.65c3-3.75,9-6.76,8.65-10.9-.31-3.67-5.72-6.89-8.83-10.36-1-1.14-1.81-2.4-1-4.07A3.29,3.29,0,0,1,10.71,298.88Z"/><path class="cls-2" d="M50.14,51.79c3.63,3.24,6.86,6.1,10.06,9,2,1.81,3.54,4,1.09,6.33-2.26,2.17-4.2.57-5.94-1.23C51.52,62,47.68,58,43.79,54.15,41,51.39,41.08,49,44.5,46.91Q51.28,42.7,58,38.4c2-1.29,4.16-1.93,5.67.4,1.61,2.51.22,4.32-2.05,5.72C58.09,46.68,54.63,48.94,50.14,51.79Z"/><path class="cls-2" d="M369.2,315.67c-.7-.83-1.29-1.57-1.94-2.26-2.6-2.79-5.24-5.55-7.83-8.34-1.56-1.68-2-3.54-.18-5.24s3.67-1.32,5.27.35q6,6.29,11.92,12.68c1.82,1.95,1.45,3.83-.26,5.69-3.81,4.16-7.57,8.36-11.36,12.53-1.63,1.8-3.49,2.72-5.55.74s-1.12-3.87.49-5.63q3.69-4.05,7.35-8.1C367.77,317.35,368.4,316.6,369.2,315.67Z"/><path class="cls-2" d="M11.14,683.82a4.09,4.09,0,0,1-3.45-2.09c-.91-1.62-.26-2.94.74-4.1,2.4-2.77,4.77-5.58,7.4-8.12,2.19-2.12,2.65-3.72.08-6A101.76,101.76,0,0,1,8.65,656c-1.56-1.67-2.05-3.6-.26-5.29s3.68-1.31,5.29.38q6,6.31,12,12.71c1.24,1.33,1.82,3,.47,4.5-4.28,4.88-8.64,9.69-13,14.47A6.83,6.83,0,0,1,11.14,683.82Z"/><path class="cls-2" d="M113.74,166c-2.66-.47-3.61-2.52-2.65-5,4.24-11.12,8.64-22.18,13.09-33.22.73-1.81,2.28-2.92,4.4-2.12s2.95,2.64,2.1,4.82q-6.51,16.62-13.14,33.2A3.54,3.54,0,0,1,113.74,166Z"/><path class="cls-2" d="M481.89,129.28c-.31.86-.61,1.81-1,2.73-3.95,10-7.93,20-11.85,30-1,2.48-2.14,5-5.27,3.72s-2.28-3.92-1.3-6.37q6.15-15.43,12.26-30.89c.81-2.08,2-3.51,4.43-2.94C481,125.94,481.89,127.3,481.89,129.28Z"/><path class="cls-2" d="M127.27,476.08c2.82.53,4.52,2.13,3.47,4.9-4.25,11.17-8.7,22.27-13.16,33.37-.74,1.85-2.2,3.06-4.35,2.32-2.35-.81-3-2.77-2.15-4.86,4.31-11.16,8.74-22.27,13.17-33.38A4.2,4.2,0,0,1,127.27,476.08Z"/><path class="cls-2" d="M461.77,512.14c.87-2.23,1.83-4.69,2.8-7.15,3.26-8.31,6.51-16.63,9.82-24.91.94-2.36,2.05-5,5.34-3.5,2.81,1.25,2.28,3.53,1.33,5.91-4.11,10.28-8.12,20.6-12.2,30.9-.83,2.11-2,4-4.71,3.31C462.05,516.14,461.47,514.45,461.77,512.14Z"/><path class="cls-2" d="M273.23,350.62c-2,4.19-3.76,8.09-5.59,12-1,2.19-2.55,3.66-5.1,2.5s-2.3-3.42-1.35-5.53q3.6-7.94,7.4-15.78c1.53-3.14,3.8-3.51,6.39-1.19,3.72,3.33,7.39,6.72,11.06,10.11,1.61,1.49,2.56,3.24.89,5.21s-3.79,1.63-5.65,0C278.68,355.6,276.12,353.24,273.23,350.62Z"/><path class="cls-2" d="M624.05,350.6c-1.92,4.16-3.64,7.9-5.37,11.63-1.07,2.3-2.54,4.19-5.36,2.84s-2.13-3.71-1.08-6c2.25-4.81,4.44-9.65,6.75-14.42,2-4.18,3.84-4.65,7.18-1.74,3.65,3.15,7.14,6.48,10.7,9.75,1.64,1.51,2.47,3.34.88,5.23-1.75,2.1-3.8,1.61-5.65,0C629.53,355.59,627,353.26,624.05,350.6Z"/><path class="cls-2" d="M117.65,256.27a6.35,6.35,0,0,1-1.68,3.52c-4.77,6.16-9.51,12.33-14.28,18.49-1.52,2-3.3,3.66-5.8,1.64s-1.3-4.09.24-6.07c4.88-6.28,9.77-12.54,14.62-18.85,1.23-1.59,2.64-2.54,4.68-1.79A3.71,3.71,0,0,1,117.65,256.27Z"/><path class="cls-2" d="M98.36,631.66a3.9,3.9,0,0,1-3.16-1.55,3.45,3.45,0,0,1,.06-4.2q8-10.44,16.14-20.77a3.22,3.22,0,0,1,4.84-.54c1.48,1.13,2,2.85.82,4.39q-8.24,10.88-16.69,21.59C99.92,631.16,99,631.35,98.36,631.66Z"/><path class="cls-2" d="M468.35,256.37a5.65,5.65,0,0,1-1.58,3.52l-14,18.06c-1.6,2.06-3.35,4.18-6.1,1.93-2.4-2-1.17-4.1.37-6.07q7.33-9.4,14.61-18.86c1.25-1.62,2.73-2.51,4.71-1.75A3.16,3.16,0,0,1,468.35,256.37Z"/><path class="cls-2" d="M129.44,266.82a17.86,17.86,0,0,1-1.49,2.64c-4.73,6.18-9.51,12.31-14.27,18.47-1.5,1.95-3.23,3.78-5.76,1.95-2.81-2-1.45-4.27.19-6.37q7.33-9.4,14.63-18.82c1.27-1.65,2.83-2.32,4.76-1.53C128.85,263.72,129.36,265,129.44,266.82Z"/><path class="cls-2" d="M480.21,266.32c.05,1.46-.86,2.47-1.67,3.51-4.65,6-9.34,12-14,18.05-1.65,2.15-3.56,3.92-6.16,1.73-2.39-2-1-4.11.55-6.05q7.35-9.37,14.61-18.82c1.27-1.65,2.8-2.35,4.74-1.61A3.08,3.08,0,0,1,480.21,266.32Z"/><path class="cls-2" d="M448.94,631.62a3.47,3.47,0,0,1-2.84-5.55c5.23-7.1,10.7-14,16.17-20.94a3.22,3.22,0,0,1,4.88-.49,3.37,3.37,0,0,1,.46,5c-5.23,6.9-10.59,13.7-15.91,20.52A4.44,4.44,0,0,1,448.94,631.62Z"/><path class="cls-2" d="M480.2,617.22a4.85,4.85,0,0,1-1.41,3.11c-4.79,6.19-9.62,12.34-14.36,18.56-1.6,2.11-3.52,3.46-5.87,1.68s-1.29-4,.3-6q7.41-9.4,14.68-18.94c1.27-1.66,2.8-2.34,4.77-1.57A3,3,0,0,1,480.2,617.22Z"/><path class="cls-2" d="M126.07,613.71a3.32,3.32,0,0,1,2.67,5.41c-5.21,7.11-10.71,14-16.18,20.91a3.26,3.26,0,0,1-4.89.52,3.21,3.21,0,0,1-.52-4.87c5.26-6.87,10.59-13.68,15.9-20.51A3.54,3.54,0,0,1,126.07,613.71Z"/></g></g></g></svg>